<?xml version="1.0" encoding="UTF-8" standalone="no"?>
<!DOCTYPE svg PUBLIC "-//W3C//DTD SVG 1.1//EN"
 "http://www.w3.org/Graphics/SVG/1.1/DTD/svg11.dtd">
<!-- Generated by graphviz version 7.1.0 (0)
 -->
<!-- Title: pastafarianism Pages: 1 -->
<svg width="184pt" height="208pt"
 viewBox="0.00 0.00 183.74 208.00" xmlns="http://www.w3.org/2000/svg" xmlns:xlink="http://www.w3.org/1999/xlink">
<g id="graph0" class="graph" transform="scale(1 1) rotate(0) translate(4 204)">
<title>pastafarianism</title>
<polygon fill="white" stroke="none" points="-4,4 -4,-204 179.74,-204 179.74,4 -4,4"/>
<!-- Parallel -->
<g id="node1" class="node">
<title>Parallel</title>
<polygon fill="gold" stroke="black" points="147.33,-200 30.06,-200 -0.11,-144 117.16,-144 147.33,-200"/>
<text text-anchor="middle" x="73.61" y="-174.8" font-family="Times,serif" font-size="9.00">Parallel</text>
<text text-anchor="middle" x="73.61" y="-164.8" font-family="Times,serif" font-size="9.00">SuccessOnOne</text>
</g>
<!-- Context -->
<g id="node2" class="node">
<title>Context</title>
<ellipse fill="gray" stroke="black" cx="35.61" cy="-90" rx="27" ry="18"/>
<text text-anchor="middle" x="35.61" y="-87.8" font-family="Times,serif" font-size="9.00">Context</text>
</g>
<!-- Parallel&#45;&gt;Context -->
<g id="edge1" class="edge">
<title>Parallel&#45;&gt;Context</title>
<path fill="none" stroke="black" d="M60.74,-143.92C56.69,-135.37 52.21,-125.95 48.18,-117.45"/>
<polygon fill="black" stroke="black" points="51.46,-116.22 44.01,-108.69 45.14,-119.22 51.46,-116.22"/>
</g>
<!-- Sequence -->
<g id="node3" class="node">
<title>Sequence</title>
<polygon fill="orange" stroke="black" points="144.61,-108 80.61,-108 80.61,-72 144.61,-72 144.61,-108"/>
<text text-anchor="middle" x="112.61" y="-87.8" font-family="Times,serif" font-size="9.00">Ⓜ Sequence</text>
</g>
<!-- Parallel&#45;&gt;Sequence -->
<g id="edge2" class="edge">
<title>Parallel&#45;&gt;Sequence</title>
<path fill="none" stroke="black" d="M86.81,-143.92C90.81,-135.72 95.2,-126.72 99.21,-118.49"/>
<polygon fill="black" stroke="black" points="102.29,-120.16 103.53,-109.63 96,-117.09 102.29,-120.16"/>
</g>
<!-- Action 1 -->
<g id="node4" class="node">
<title>Action 1</title>
<ellipse fill="gray" stroke="black" cx="76.61" cy="-18" rx="27.27" ry="18"/>
<text text-anchor="middle" x="76.61" y="-15.8" font-family="Times,serif" font-size="9.00">Action 1</text>
</g>
<!-- Sequence&#45;&gt;Action 1 -->
<g id="edge3" class="edge">
<title>Sequence&#45;&gt;Action 1</title>
<path fill="none" stroke="black" d="M103.71,-71.7C99.63,-63.75 94.69,-54.16 90.16,-45.34"/>
<polygon fill="black" stroke="black" points="93.29,-43.78 85.6,-36.49 87.07,-46.98 93.29,-43.78"/>
</g>
<!-- Action 2 -->
<g id="node5" class="node">
<title>Action 2</title>
<ellipse fill="gray" stroke="black" cx="148.61" cy="-18" rx="27.27" ry="18"/>
<text text-anchor="middle" x="148.61" y="-15.8" font-family="Times,serif" font-size="9.00">Action 2</text>
</g>
<!-- Sequence&#45;&gt;Action 2 -->
<g id="edge4" class="edge">
<title>Sequence&#45;&gt;Action 2</title>
<path fill="none" stroke="black" d="M121.51,-71.7C125.59,-63.75 130.53,-54.16 135.06,-45.34"/>
<polygon fill="black" stroke="black" points="138.15,-46.98 139.61,-36.49 131.93,-43.78 138.15,-46.98"/>
</g>
</g>
</svg>
