<?xml version="1.0" encoding="UTF-8" standalone="no"?>
<!DOCTYPE svg PUBLIC "-//W3C//DTD SVG 1.1//EN"
 "http://www.w3.org/Graphics/SVG/1.1/DTD/svg11.dtd">
<!-- Generated by graphviz version 7.1.0 (0)
 -->
<!-- Title: pastafarianism Pages: 1 -->
<svg width="638pt" height="385pt"
 viewBox="0.00 0.00 638.20 385.00" xmlns="http://www.w3.org/2000/svg" xmlns:xlink="http://www.w3.org/1999/xlink">
<g id="graph0" class="graph" transform="scale(1 1) rotate(0) translate(4 381)">
<title>pastafarianism</title>
<polygon fill="white" stroke="none" points="-4,4 -4,-381 634.2,-381 634.2,4 -4,4"/>
<!-- Close or far -->
<g id="node1" class="node">
<title>Close or far</title>
<polygon fill="cyan" stroke="black" points="280.49,-351.54 280.49,-366.46 254.72,-377 218.28,-377 192.51,-366.46 192.51,-351.54 218.28,-341 254.72,-341 280.49,-351.54"/>
<text text-anchor="middle" x="236.5" y="-356.8" font-family="Times,serif" font-size="9.00">Close or far</text>
</g>
<!-- Can distance -->
<g id="node2" class="node">
<title>Can distance</title>
<polygon fill="orange" stroke="black" points="231,-305 154,-305 154,-269 231,-269 231,-305"/>
<text text-anchor="middle" x="192.5" y="-284.8" font-family="Times,serif" font-size="9.00">Can distance</text>
</g>
<!-- Close or far&#45;&gt;Can distance -->
<g id="edge1" class="edge">
<title>Close or far&#45;&gt;Can distance</title>
<path fill="none" stroke="black" d="M225.62,-340.7C220.72,-332.9 214.82,-323.51 209.36,-314.83"/>
<polygon fill="black" stroke="black" points="212.34,-312.99 204.06,-306.39 206.42,-316.71 212.34,-312.99"/>
</g>
<!-- Actions -->
<g id="node4" class="node">
<title>Actions</title>
<polygon fill="cyan" stroke="black" points="325.24,-279.54 325.24,-294.46 306.65,-305 280.35,-305 261.76,-294.46 261.76,-279.54 280.35,-269 306.65,-269 325.24,-279.54"/>
<text text-anchor="middle" x="293.5" y="-284.8" font-family="Times,serif" font-size="9.00">Actions</text>
</g>
<!-- Close or far&#45;&gt;Actions -->
<g id="edge3" class="edge">
<title>Close or far&#45;&gt;Actions</title>
<path fill="none" stroke="black" d="M250.59,-340.7C257.15,-332.64 265.09,-322.89 272.34,-313.98"/>
<polygon fill="black" stroke="black" points="275.02,-316.24 278.62,-306.28 269.59,-311.82 275.02,-316.24"/>
</g>
<!-- Can distance to BB -->
<g id="node3" class="node">
<title>Can distance to BB</title>
<ellipse fill="gray" stroke="black" cx="165.5" cy="-215" rx="60.74" ry="18"/>
<text text-anchor="middle" x="165.5" y="-212.8" font-family="Times,serif" font-size="9.00">Can distance to BB</text>
</g>
<!-- Can distance&#45;&gt;Can distance to BB -->
<g id="edge2" class="edge">
<title>Can distance&#45;&gt;Can distance to BB</title>
<path fill="none" stroke="black" d="M185.83,-268.7C182.92,-261.15 179.43,-252.12 176.18,-243.68"/>
<polygon fill="black" stroke="black" points="179.51,-242.59 172.64,-234.52 172.98,-245.11 179.51,-242.59"/>
</g>
<!-- /distance -->
<g id="node13" class="node">
<title>/distance</title>
<polygon fill="white" stroke="blue" points="63,-17 0,-17 0,0 63,0 63,-17"/>
<text text-anchor="middle" x="31.5" y="-6.6" font-family="Times,serif" font-size="8.00" fill="blue">/distance: 2</text>
</g>
<!-- Can distance to BB&#45;&gt;/distance -->
<g id="edge12" class="edge">
<title>Can distance to BB&#45;&gt;/distance</title>
<path fill="none" stroke="blue" d="M111.23,-206.65C83.09,-199.8 51.03,-186.56 33.5,-161 5.78,-120.58 17.35,-58.74 25.7,-28.07"/>
<polygon fill="blue" stroke="blue" points="28.98,-29.35 28.44,-18.76 22.26,-27.37 28.98,-29.35"/>
</g>
<!-- Posibble scenarios -->
<g id="node5" class="node">
<title>Posibble scenarios</title>
<polygon fill="cyan" stroke="black" points="371.48,-207.54 371.48,-222.46 334,-233 281,-233 243.52,-222.46 243.52,-207.54 281,-197 334,-197 371.48,-207.54"/>
<text text-anchor="middle" x="307.5" y="-212.8" font-family="Times,serif" font-size="9.00">Posibble scenarios</text>
</g>
<!-- Actions&#45;&gt;Posibble scenarios -->
<g id="edge4" class="edge">
<title>Actions&#45;&gt;Posibble scenarios</title>
<path fill="none" stroke="black" d="M296.96,-268.7C298.44,-261.32 300.2,-252.52 301.85,-244.25"/>
<polygon fill="black" stroke="black" points="305.25,-245.08 303.78,-234.59 298.39,-243.71 305.25,-245.08"/>
</g>
<!-- Is the can to close? -->
<g id="node6" class="node">
<title>Is the can to close?</title>
<ellipse fill="ghostwhite" stroke="black" cx="103.5" cy="-143" rx="60.74" ry="18"/>
<text text-anchor="middle" x="103.5" y="-140.8" font-family="Times,serif" font-size="9.00">Is the can to close?</text>
</g>
<!-- Posibble scenarios&#45;&gt;Is the can to close? -->
<g id="edge5" class="edge">
<title>Posibble scenarios&#45;&gt;Is the can to close?</title>
<path fill="none" stroke="black" d="M267.68,-200.34C234.79,-189.05 187.95,-172.98 152.71,-160.89"/>
<polygon fill="black" stroke="black" points="154.21,-157.7 143.61,-157.76 151.93,-164.32 154.21,-157.7"/>
</g>
<!-- Is the can far? -->
<g id="node8" class="node">
<title>Is the can far?</title>
<ellipse fill="ghostwhite" stroke="black" cx="230.5" cy="-143" rx="47.84" ry="18"/>
<text text-anchor="middle" x="230.5" y="-140.8" font-family="Times,serif" font-size="9.00">Is the can far?</text>
</g>
<!-- Posibble scenarios&#45;&gt;Is the can far? -->
<g id="edge7" class="edge">
<title>Posibble scenarios&#45;&gt;Is the can far?</title>
<path fill="none" stroke="black" d="M288.47,-196.7C278.86,-187.97 267.07,-177.24 256.63,-167.75"/>
<polygon fill="black" stroke="black" points="259.13,-165.3 249.38,-161.16 254.42,-170.48 259.13,-165.3"/>
</g>
<!-- Is the can in a good distance? -->
<g id="node10" class="node">
<title>Is the can in a good distance?</title>
<ellipse fill="ghostwhite" stroke="black" cx="385.5" cy="-143" rx="89.48" ry="18"/>
<text text-anchor="middle" x="385.5" y="-140.8" font-family="Times,serif" font-size="9.00">Is the can in a good distance?</text>
</g>
<!-- Posibble scenarios&#45;&gt;Is the can in a good distance? -->
<g id="edge9" class="edge">
<title>Posibble scenarios&#45;&gt;Is the can in a good distance?</title>
<path fill="none" stroke="black" d="M326.78,-196.7C336.3,-188.16 347.94,-177.71 358.34,-168.37"/>
<polygon fill="black" stroke="black" points="360.48,-171.16 365.58,-161.87 355.8,-165.95 360.48,-171.16"/>
</g>
<!-- Can&#39;t see the can boss -->
<g id="node12" class="node">
<title>Can&#39;t see the can boss</title>
<ellipse fill="gray" stroke="black" cx="561.5" cy="-143" rx="68.91" ry="18"/>
<text text-anchor="middle" x="561.5" y="-140.8" font-family="Times,serif" font-size="9.00">Can&#39;t see the can boss</text>
</g>
<!-- Posibble scenarios&#45;&gt;Can&#39;t see the can boss -->
<g id="edge11" class="edge">
<title>Posibble scenarios&#45;&gt;Can&#39;t see the can boss</title>
<path fill="none" stroke="black" d="M352.33,-201.65C394.69,-189.97 458.44,-172.4 504.42,-159.73"/>
<polygon fill="black" stroke="black" points="505.24,-163.14 513.95,-157.1 503.38,-156.39 505.24,-163.14"/>
</g>
<!-- Close -->
<g id="node7" class="node">
<title>Close</title>
<ellipse fill="gray" stroke="black" cx="103.5" cy="-71" rx="27" ry="18"/>
<text text-anchor="middle" x="103.5" y="-68.8" font-family="Times,serif" font-size="9.00">Close</text>
</g>
<!-- Is the can to close?&#45;&gt;Close -->
<g id="edge6" class="edge">
<title>Is the can to close?&#45;&gt;Close</title>
<path fill="none" stroke="black" d="M103.5,-124.7C103.5,-117.41 103.5,-108.73 103.5,-100.54"/>
<polygon fill="black" stroke="black" points="107,-100.62 103.5,-90.62 100,-100.62 107,-100.62"/>
</g>
<!-- Far -->
<g id="node9" class="node">
<title>Far</title>
<ellipse fill="gray" stroke="black" cx="230.5" cy="-71" rx="27" ry="18"/>
<text text-anchor="middle" x="230.5" y="-68.8" font-family="Times,serif" font-size="9.00">Far</text>
</g>
<!-- Is the can far?&#45;&gt;Far -->
<g id="edge8" class="edge">
<title>Is the can far?&#45;&gt;Far</title>
<path fill="none" stroke="black" d="M230.5,-124.7C230.5,-117.41 230.5,-108.73 230.5,-100.54"/>
<polygon fill="black" stroke="black" points="234,-100.62 230.5,-90.62 227,-100.62 234,-100.62"/>
</g>
<!-- Good -->
<g id="node11" class="node">
<title>Good</title>
<ellipse fill="gray" stroke="black" cx="385.5" cy="-71" rx="27" ry="18"/>
<text text-anchor="middle" x="385.5" y="-68.8" font-family="Times,serif" font-size="9.00">Good</text>
</g>
<!-- Is the can in a good distance?&#45;&gt;Good -->
<g id="edge10" class="edge">
<title>Is the can in a good distance?&#45;&gt;Good</title>
<path fill="none" stroke="black" d="M385.5,-124.7C385.5,-117.41 385.5,-108.73 385.5,-100.54"/>
<polygon fill="black" stroke="black" points="389,-100.62 385.5,-90.62 382,-100.62 389,-100.62"/>
</g>
</g>
</svg>
