<?xml version="1.0" encoding="UTF-8" standalone="no"?>
<!DOCTYPE svg PUBLIC "-//W3C//DTD SVG 1.1//EN"
 "http://www.w3.org/Graphics/SVG/1.1/DTD/svg11.dtd">
<!-- Generated by graphviz version 8.0.3 (0)
 -->
<!-- Title: pastafarianism Pages: 1 -->
<svg width="1483pt" height="385pt"
 viewBox="0.00 0.00 1482.74 385.00" xmlns="http://www.w3.org/2000/svg" xmlns:xlink="http://www.w3.org/1999/xlink">
<g id="graph0" class="graph" transform="scale(1 1) rotate(0) translate(4 381)">
<title>pastafarianism</title>
<polygon fill="white" stroke="none" points="-4,4 -4,-381 1478.74,-381 1478.74,4 -4,4"/>
<!-- Resilient CLaDOS BT -->
<g id="node1" class="node">
<title>Resilient CLaDOS BT</title>
<polygon fill="orange" stroke="black" points="519.25,-377 404.25,-377 404.25,-341 519.25,-341 519.25,-377"/>
<text text-anchor="middle" x="461.75" y="-356.8" font-family="Times,serif" font-size="9.00">Resilient CLaDOS BT</text>
</g>
<!-- Data Gathering -->
<g id="node2" class="node">
<title>Data Gathering</title>
<polygon fill="orange" stroke="black" points="298.25,-305 209.25,-305 209.25,-269 298.25,-269 298.25,-305"/>
<text text-anchor="middle" x="253.75" y="-284.8" font-family="Times,serif" font-size="9.00">Data Gathering</text>
</g>
<!-- Resilient CLaDOS BT&#45;&gt;Data Gathering -->
<g id="edge1" class="edge">
<title>Resilient CLaDOS BT&#45;&gt;Data Gathering</title>
<path fill="none" stroke="black" d="M409.8,-340.52C379.09,-330.18 340.24,-317.11 308.98,-306.59"/>
<polygon fill="black" stroke="black" points="310.28,-303 299.69,-303.13 308.05,-309.63 310.28,-303"/>
</g>
<!-- Tasks -->
<g id="node6" class="node">
<title>Tasks</title>
<polygon fill="cyan" stroke="black" points="749.75,-279.54 749.75,-294.46 733.93,-305 711.56,-305 695.75,-294.46 695.75,-279.54 711.56,-269 733.93,-269 749.75,-279.54"/>
<text text-anchor="middle" x="722.75" y="-284.8" font-family="Times,serif" font-size="9.00">Tasks</text>
</g>
<!-- Resilient CLaDOS BT&#45;&gt;Tasks -->
<g id="edge5" class="edge">
<title>Resilient CLaDOS BT&#45;&gt;Tasks</title>
<path fill="none" stroke="black" d="M519.67,-342.46C570.24,-328.9 642.11,-309.63 685.41,-298.01"/>
<polygon fill="black" stroke="black" points="686.28,-301.14 695.03,-295.16 684.47,-294.37 686.28,-301.14"/>
</g>
<!-- Distance Sensors To BB -->
<g id="node3" class="node">
<title>Distance Sensors To BB</title>
<ellipse fill="gray" stroke="black" cx="72.75" cy="-215" rx="72.99" ry="18"/>
<text text-anchor="middle" x="72.75" y="-212.8" font-family="Times,serif" font-size="9.00">Distance Sensors To BB</text>
</g>
<!-- Data Gathering&#45;&gt;Distance Sensors To BB -->
<g id="edge2" class="edge">
<title>Data Gathering&#45;&gt;Distance Sensors To BB</title>
<path fill="none" stroke="black" d="M209,-268.7C182.27,-258.36 148.31,-245.22 120.98,-234.65"/>
<polygon fill="black" stroke="black" points="122.44,-231.08 111.86,-230.74 119.92,-237.61 122.44,-231.08"/>
</g>
<!-- IMU To BB -->
<g id="node4" class="node">
<title>IMU To BB</title>
<ellipse fill="gray" stroke="black" cx="201.75" cy="-215" rx="38.87" ry="18"/>
<text text-anchor="middle" x="201.75" y="-212.8" font-family="Times,serif" font-size="9.00">IMU To BB</text>
</g>
<!-- Data Gathering&#45;&gt;IMU To BB -->
<g id="edge3" class="edge">
<title>Data Gathering&#45;&gt;IMU To BB</title>
<path fill="none" stroke="black" d="M240.89,-268.7C234.67,-260.32 227.08,-250.1 220.24,-240.9"/>
<polygon fill="black" stroke="black" points="222.51,-239.08 213.74,-233.14 216.89,-243.26 222.51,-239.08"/>
</g>
<!-- Camera To BB -->
<g id="node5" class="node">
<title>Camera To BB</title>
<ellipse fill="gray" stroke="black" cx="305.75" cy="-215" rx="47.19" ry="18"/>
<text text-anchor="middle" x="305.75" y="-212.8" font-family="Times,serif" font-size="9.00">Camera To BB</text>
</g>
<!-- Data Gathering&#45;&gt;Camera To BB -->
<g id="edge4" class="edge">
<title>Data Gathering&#45;&gt;Camera To BB</title>
<path fill="none" stroke="black" d="M266.6,-268.7C272.74,-260.44 280.2,-250.39 286.95,-241.3"/>
<polygon fill="black" stroke="black" points="290.24,-243.74 293.4,-233.62 284.63,-239.56 290.24,-243.74"/>
</g>
<!-- /is_robot_about_to_collide -->
<g id="node23" class="node">
<title>/is_robot_about_to_collide</title>
<polygon fill="white" stroke="blue" points="202.25,-17 77.25,-17 77.25,0 202.25,0 202.25,-17"/>
<text text-anchor="middle" x="139.75" y="-6.6" font-family="Times,serif" font-size="8.00" fill="blue">/is_robot_about_to_collide: &#45;</text>
</g>
<!-- Distance Sensors To BB&#45;&gt;/is_robot_about_to_collide -->
<g id="edge26" class="edge">
<title>Distance Sensors To BB&#45;&gt;/is_robot_about_to_collide</title>
<path fill="none" stroke="blue" d="M78.46,-196.56C91.02,-158.22 120.94,-66.9 133.75,-27.79"/>
<polygon fill="blue" stroke="blue" points="137.36,-29.03 137.14,-18.44 130.7,-26.86 137.36,-29.03"/>
</g>
<!-- /is_robot_stuck -->
<g id="node24" class="node">
<title>/is_robot_stuck</title>
<polygon fill="white" stroke="blue" points="600.25,-17 517.25,-17 517.25,0 600.25,0 600.25,-17"/>
<text text-anchor="middle" x="558.75" y="-6.6" font-family="Times,serif" font-size="8.00" fill="blue">/is_robot_stuck: &#45;</text>
</g>
<!-- IMU To BB&#45;&gt;/is_robot_stuck -->
<g id="edge27" class="edge">
<title>IMU To BB&#45;&gt;/is_robot_stuck</title>
<path fill="none" stroke="blue" d="M203.71,-196.59C208.51,-162.93 224.06,-89.07 270.75,-53 306.57,-25.32 433.18,-15.08 506.04,-11.42"/>
<polygon fill="blue" stroke="blue" points="506,-14.88 515.82,-10.91 505.67,-7.89 506,-14.88"/>
</g>
<!-- /current_frame -->
<g id="node21" class="node">
<title>/current_frame</title>
<polygon fill="white" stroke="blue" points="851.25,-17 766.25,-17 766.25,0 851.25,0 851.25,-17"/>
<text text-anchor="middle" x="808.75" y="-6.6" font-family="Times,serif" font-size="8.00" fill="blue">/current_frame: &#45;</text>
</g>
<!-- Camera To BB&#45;&gt;/current_frame -->
<g id="edge21" class="edge">
<title>Camera To BB&#45;&gt;/current_frame</title>
<path fill="none" stroke="blue" d="M303.24,-196.76C299.47,-163.38 296.67,-90.01 337.75,-53 353.09,-39.17 635.3,-20.21 755.38,-12.72"/>
<polygon fill="blue" stroke="blue" points="755.38,-16.17 765.14,-12.06 754.94,-9.18 755.38,-16.17"/>
</g>
<!-- Crash subtree -->
<g id="node7" class="node">
<title>Crash subtree</title>
<polygon fill="cyan" stroke="black" points="474.23,-207.54 474.23,-222.46 444.07,-233 401.42,-233 371.26,-222.46 371.26,-207.54 401.42,-197 444.07,-197 474.23,-207.54"/>
<text text-anchor="middle" x="422.75" y="-212.8" font-family="Times,serif" font-size="9.00">Crash subtree</text>
</g>
<!-- Tasks&#45;&gt;Crash subtree -->
<g id="edge6" class="edge">
<title>Tasks&#45;&gt;Crash subtree</title>
<path fill="none" stroke="black" d="M695.27,-280.48C650.54,-271.37 559.3,-252.28 482.75,-233 479.17,-232.1 475.49,-231.14 471.79,-230.15"/>
<polygon fill="black" stroke="black" points="472.96,-226.57 462.39,-227.31 471.11,-233.32 472.96,-226.57"/>
</g>
<!-- About to enter the water -->
<g id="node10" class="node">
<title>About to enter the water</title>
<ellipse fill="gray" stroke="black" cx="567.75" cy="-215" rx="75.77" ry="18"/>
<text text-anchor="middle" x="567.75" y="-212.8" font-family="Times,serif" font-size="9.00">About to enter the water</text>
</g>
<!-- Tasks&#45;&gt;About to enter the water -->
<g id="edge9" class="edge">
<title>Tasks&#45;&gt;About to enter the water</title>
<path fill="none" stroke="black" d="M700.54,-275.97C677.48,-265.56 640.78,-248.98 611.8,-235.9"/>
<polygon fill="black" stroke="black" points="613.47,-232.36 602.91,-231.43 610.58,-238.74 613.47,-232.36"/>
</g>
<!-- Is stuck in the sand -->
<g id="node11" class="node">
<title>Is stuck in the sand</title>
<ellipse fill="gray" stroke="black" cx="722.75" cy="-215" rx="61.55" ry="18"/>
<text text-anchor="middle" x="722.75" y="-212.8" font-family="Times,serif" font-size="9.00">Is stuck in the sand</text>
</g>
<!-- Tasks&#45;&gt;Is stuck in the sand -->
<g id="edge10" class="edge">
<title>Tasks&#45;&gt;Is stuck in the sand</title>
<path fill="none" stroke="black" d="M722.75,-268.7C722.75,-261.24 722.75,-252.32 722.75,-243.97"/>
<polygon fill="black" stroke="black" points="726.25,-244.1 722.75,-234.1 719.25,-244.1 726.25,-244.1"/>
</g>
<!-- Has enough cans in tray or been more than x minutes -->
<g id="node12" class="node">
<title>Has enough cans in tray or been more than x minutes</title>
<ellipse fill="gray" stroke="black" cx="955.75" cy="-215" rx="153.65" ry="18"/>
<text text-anchor="middle" x="955.75" y="-212.8" font-family="Times,serif" font-size="9.00">Has enough cans in tray or been more than x minutes</text>
</g>
<!-- Tasks&#45;&gt;Has enough cans in tray or been more than x minutes -->
<g id="edge11" class="edge">
<title>Tasks&#45;&gt;Has enough cans in tray or been more than x minutes</title>
<path fill="none" stroke="black" d="M748.57,-278.24C782.72,-267.98 844.07,-249.55 891.17,-235.4"/>
<polygon fill="black" stroke="black" points="892.03,-238.5 900.6,-232.27 890.02,-231.79 892.03,-238.5"/>
</g>
<!-- Look for can -->
<g id="node13" class="node">
<title>Look for can</title>
<polygon fill="orange" stroke="black" points="1201.75,-233 1127.75,-233 1127.75,-197 1201.75,-197 1201.75,-233"/>
<text text-anchor="middle" x="1164.75" y="-212.8" font-family="Times,serif" font-size="9.00">Look for can</text>
</g>
<!-- Tasks&#45;&gt;Look for can -->
<g id="edge12" class="edge">
<title>Tasks&#45;&gt;Look for can</title>
<path fill="none" stroke="black" d="M750.02,-284.43C813.24,-280.35 974.63,-267.44 1116.68,-233.21"/>
<polygon fill="black" stroke="black" points="1117.43,-236.39 1126.3,-230.61 1115.76,-229.59 1117.43,-236.39"/>
</g>
<!-- Robot Lost -->
<g id="node20" class="node">
<title>Robot Lost</title>
<ellipse fill="gray" stroke="black" cx="1257.75" cy="-215" rx="38.21" ry="18"/>
<text text-anchor="middle" x="1257.75" y="-212.8" font-family="Times,serif" font-size="9.00">Robot Lost</text>
</g>
<!-- Tasks&#45;&gt;Robot Lost -->
<g id="edge19" class="edge">
<title>Tasks&#45;&gt;Robot Lost</title>
<path fill="none" stroke="black" d="M750.11,-285.31C824.86,-282.94 1038.48,-272.9 1210.75,-233 1213.58,-232.34 1216.48,-231.57 1219.38,-230.71"/>
<polygon fill="black" stroke="black" points="1220.3,-233.77 1228.74,-227.36 1218.15,-227.11 1220.3,-233.77"/>
</g>
<!-- About to crash? -->
<g id="node8" class="node">
<title>About to crash?</title>
<ellipse fill="ghostwhite" stroke="black" cx="422.75" cy="-143" rx="51.27" ry="18"/>
<text text-anchor="middle" x="422.75" y="-140.8" font-family="Times,serif" font-size="9.00">About to crash?</text>
</g>
<!-- Crash subtree&#45;&gt;About to crash? -->
<g id="edge7" class="edge">
<title>Crash subtree&#45;&gt;About to crash?</title>
<path fill="none" stroke="black" d="M422.75,-196.7C422.75,-189.24 422.75,-180.32 422.75,-171.97"/>
<polygon fill="black" stroke="black" points="426.25,-172.1 422.75,-162.1 419.25,-172.1 426.25,-172.1"/>
</g>
<!-- Backoff and spin subtree -->
<g id="node9" class="node">
<title>Backoff and spin subtree</title>
<ellipse fill="gray" stroke="black" cx="422.75" cy="-71" rx="76.42" ry="18"/>
<text text-anchor="middle" x="422.75" y="-68.8" font-family="Times,serif" font-size="9.00">Backoff and spin subtree</text>
</g>
<!-- About to crash?&#45;&gt;Backoff and spin subtree -->
<g id="edge8" class="edge">
<title>About to crash?&#45;&gt;Backoff and spin subtree</title>
<path fill="none" stroke="black" d="M422.75,-124.7C422.75,-117.24 422.75,-108.32 422.75,-99.97"/>
<polygon fill="black" stroke="black" points="426.25,-100.1 422.75,-90.1 419.25,-100.1 426.25,-100.1"/>
</g>
<!-- Find Can -->
<g id="node14" class="node">
<title>Find Can</title>
<polygon fill="cyan" stroke="black" points="1135.49,-135.54 1135.49,-150.46 1113.96,-161 1083.53,-161 1062.01,-150.46 1062.01,-135.54 1083.53,-125 1113.96,-125 1135.49,-135.54"/>
<text text-anchor="middle" x="1098.75" y="-140.8" font-family="Times,serif" font-size="9.00">Find Can</text>
</g>
<!-- Look for can&#45;&gt;Find Can -->
<g id="edge13" class="edge">
<title>Look for can&#45;&gt;Find Can</title>
<path fill="none" stroke="black" d="M1148.43,-196.7C1140.52,-188.3 1130.87,-178.07 1122.19,-168.86"/>
<polygon fill="black" stroke="black" points="1125.28,-166.98 1115.87,-162.1 1120.19,-171.78 1125.28,-166.98"/>
</g>
<!-- Recollect can -->
<g id="node16" class="node">
<title>Recollect can</title>
<polygon fill="orange" stroke="black" points="1259.25,-161 1180.25,-161 1180.25,-125 1259.25,-125 1259.25,-161"/>
<text text-anchor="middle" x="1219.75" y="-140.8" font-family="Times,serif" font-size="9.00">Recollect can</text>
</g>
<!-- Look for can&#45;&gt;Recollect can -->
<g id="edge15" class="edge">
<title>Look for can&#45;&gt;Recollect can</title>
<path fill="none" stroke="black" d="M1178.34,-196.7C1184.74,-188.56 1192.49,-178.69 1199.55,-169.7"/>
<polygon fill="black" stroke="black" points="1202.88,-172.13 1206.31,-162.1 1197.38,-167.81 1202.88,-172.13"/>
</g>
<!-- TF Detection -->
<g id="node15" class="node">
<title>TF Detection</title>
<ellipse fill="gray" stroke="black" cx="1090.75" cy="-71" rx="44.41" ry="18"/>
<text text-anchor="middle" x="1090.75" y="-68.8" font-family="Times,serif" font-size="9.00">TF Detection</text>
</g>
<!-- Find Can&#45;&gt;TF Detection -->
<g id="edge14" class="edge">
<title>Find Can&#45;&gt;TF Detection</title>
<path fill="none" stroke="black" d="M1096.77,-124.7C1095.92,-117.24 1094.9,-108.32 1093.94,-99.97"/>
<polygon fill="black" stroke="black" points="1097.31,-99.64 1092.7,-90.1 1090.36,-100.44 1097.31,-99.64"/>
</g>
<!-- /detection -->
<g id="node22" class="node">
<title>/detection</title>
<polygon fill="white" stroke="blue" points="1008.25,-17 943.25,-17 943.25,0 1008.25,0 1008.25,-17"/>
<text text-anchor="middle" x="975.75" y="-6.6" font-family="Times,serif" font-size="8.00" fill="blue">/detection: &#45;</text>
</g>
<!-- TF Detection&#45;&gt;/detection -->
<g id="edge24" class="edge">
<title>TF Detection&#45;&gt;/detection</title>
<path fill="none" stroke="blue" d="M1064.36,-56.12C1045.12,-45.99 1019.21,-32.37 1000.38,-22.46"/>
<polygon fill="blue" stroke="blue" points="1002.22,-18.95 991.74,-17.39 998.96,-25.14 1002.22,-18.95"/>
</g>
<!-- /centroid -->
<g id="node25" class="node">
<title>/centroid</title>
<polygon fill="white" stroke="blue" points="1124.25,-17 1063.25,-17 1063.25,0 1124.25,0 1124.25,-17"/>
<text text-anchor="middle" x="1093.75" y="-6.6" font-family="Times,serif" font-size="8.00" fill="blue">/centroid: &#45;</text>
</g>
<!-- TF Detection&#45;&gt;/centroid -->
<g id="edge30" class="edge">
<title>TF Detection&#45;&gt;/centroid</title>
<path fill="none" stroke="blue" d="M1091.6,-52.82C1091.98,-45.21 1092.42,-36.23 1092.81,-28.43"/>
<polygon fill="blue" stroke="blue" points="1096.35,-28.66 1093.35,-18.5 1089.36,-28.31 1096.35,-28.66"/>
</g>
<!-- Centering Can -->
<g id="node17" class="node">
<title>Centering Can</title>
<ellipse fill="gray" stroke="black" cx="1201.75" cy="-71" rx="48.49" ry="18"/>
<text text-anchor="middle" x="1201.75" y="-68.8" font-family="Times,serif" font-size="9.00">Centering Can</text>
</g>
<!-- Recollect can&#45;&gt;Centering Can -->
<g id="edge16" class="edge">
<title>Recollect can&#45;&gt;Centering Can</title>
<path fill="none" stroke="black" d="M1215.3,-124.7C1213.36,-117.15 1211.03,-108.12 1208.86,-99.68"/>
<polygon fill="black" stroke="black" points="1212.02,-98.92 1206.14,-90.1 1205.25,-100.66 1212.02,-98.92"/>
</g>
<!-- Get close to Can -->
<g id="node18" class="node">
<title>Get close to Can</title>
<ellipse fill="gray" stroke="black" cx="1321.75" cy="-71" rx="53.23" ry="18"/>
<text text-anchor="middle" x="1321.75" y="-68.8" font-family="Times,serif" font-size="9.00">Get close to Can</text>
</g>
<!-- Recollect can&#45;&gt;Get close to Can -->
<g id="edge17" class="edge">
<title>Recollect can&#45;&gt;Get close to Can</title>
<path fill="none" stroke="black" d="M1245.22,-124.52C1258.78,-115.22 1275.57,-103.69 1289.97,-93.81"/>
<polygon fill="black" stroke="black" points="1291.76,-96.14 1298.03,-87.59 1287.8,-90.36 1291.76,-96.14"/>
</g>
<!-- Picking can -->
<g id="node19" class="node">
<title>Picking can</title>
<ellipse fill="gray" stroke="black" cx="1433.75" cy="-71" rx="40.98" ry="18"/>
<text text-anchor="middle" x="1433.75" y="-68.8" font-family="Times,serif" font-size="9.00">Picking can</text>
</g>
<!-- Recollect can&#45;&gt;Picking can -->
<g id="edge18" class="edge">
<title>Recollect can&#45;&gt;Picking can</title>
<path fill="none" stroke="black" d="M1259.57,-129.32C1292.81,-118.68 1341.43,-103.03 1383.75,-89 1386.34,-88.14 1389,-87.25 1391.68,-86.35"/>
<polygon fill="black" stroke="black" points="1392.67,-89.38 1401.03,-82.86 1390.44,-82.74 1392.67,-89.38"/>
</g>
<!-- /current_frame&#45;&gt;TF Detection -->
<g id="edge20" class="edge">
<title>/current_frame&#45;&gt;TF Detection</title>
<path fill="none" stroke="green" d="M846,-17.49C896.21,-28.26 985.71,-47.47 1041.45,-59.42"/>
<polygon fill="green" stroke="green" points="1040.61,-63.04 1051.13,-61.71 1042.08,-56.19 1040.61,-63.04"/>
</g>
<!-- /detection&#45;&gt;Centering Can -->
<g id="edge23" class="edge">
<title>/detection&#45;&gt;Centering Can</title>
<path fill="none" stroke="green" d="M1007.72,-17.46C1041.58,-25.96 1096.55,-39.98 1143.75,-53 1147.13,-53.94 1150.63,-54.92 1154.14,-55.92"/>
<polygon fill="green" stroke="green" points="1153.09,-59.54 1163.67,-58.94 1155.02,-52.81 1153.09,-59.54"/>
</g>
<!-- /detection&#45;&gt;Get close to Can -->
<g id="edge22" class="edge">
<title>/detection&#45;&gt;Get close to Can</title>
<path fill="none" stroke="green" d="M1008.64,-13.35C1061.63,-19.82 1169.01,-34.06 1258.75,-53 1263.05,-53.91 1267.49,-54.93 1271.94,-56.01"/>
<polygon fill="green" stroke="green" points="1270.7,-59.56 1281.25,-58.62 1272.42,-52.78 1270.7,-59.56"/>
</g>
<!-- /is_robot_about_to_collide&#45;&gt;About to crash? -->
<g id="edge25" class="edge">
<title>/is_robot_about_to_collide&#45;&gt;About to crash?</title>
<path fill="none" stroke="green" d="M202.38,-12.44C302.12,-17.77 487.85,-30.61 507.75,-53 518.38,-64.96 515.51,-75.01 507.75,-89 498.94,-104.87 483.19,-116.6 467.62,-124.94"/>
<polygon fill="green" stroke="green" points="466.42,-122.13 459.02,-129.7 469.53,-128.4 466.42,-122.13"/>
</g>
<!-- /centroid&#45;&gt;Centering Can -->
<g id="edge29" class="edge">
<title>/centroid&#45;&gt;Centering Can</title>
<path fill="none" stroke="green" d="M1107.76,-17.35C1122.49,-25.6 1146.24,-38.91 1166.18,-50.07"/>
<polygon fill="green" stroke="green" points="1164.17,-53.52 1174.6,-55.35 1167.59,-47.41 1164.17,-53.52"/>
</g>
<!-- /centroid&#45;&gt;Get close to Can -->
<g id="edge28" class="edge">
<title>/centroid&#45;&gt;Get close to Can</title>
<path fill="none" stroke="green" d="M1124.17,-17.46C1157.29,-26.15 1211.8,-40.48 1258.75,-53 1262.58,-54.02 1266.55,-55.09 1270.54,-56.16"/>
<polygon fill="green" stroke="green" points="1269.52,-59.78 1280.09,-58.99 1271.34,-53.02 1269.52,-59.78"/>
</g>
</g>
</svg>
