<?xml version="1.0" encoding="UTF-8" standalone="no"?>
<!DOCTYPE svg PUBLIC "-//W3C//DTD SVG 1.1//EN"
 "http://www.w3.org/Graphics/SVG/1.1/DTD/svg11.dtd">
<!-- Generated by graphviz version 7.1.0 (0)
 -->
<!-- Title: pastafarianism Pages: 1 -->
<svg width="871pt" height="405pt"
 viewBox="0.00 0.00 870.63 405.00" xmlns="http://www.w3.org/2000/svg" xmlns:xlink="http://www.w3.org/1999/xlink">
<g id="graph0" class="graph" transform="scale(1 1) rotate(0) translate(4 401)">
<title>pastafarianism</title>
<polygon fill="white" stroke="none" points="-4,4 -4,-401 866.63,-401 866.63,4 -4,4"/>
<!-- Resilient CLaDOS BT -->
<g id="node1" class="node">
<title>Resilient CLaDOS BT</title>
<polygon fill="gold" stroke="black" points="578.77,-397 365.64,-397 310.81,-341 523.94,-341 578.77,-397"/>
<text text-anchor="middle" x="444.79" y="-371.8" font-family="Times,serif" font-size="9.00">⚡ Resilient CLaDOS BT</text>
<text text-anchor="middle" x="444.79" y="-361.8" font-family="Times,serif" font-size="9.00">SuccessOnAll</text>
</g>
<!-- Data Gathering -->
<g id="node2" class="node">
<title>Data Gathering</title>
<polygon fill="orange" stroke="black" points="444.29,-305 355.29,-305 355.29,-269 444.29,-269 444.29,-305"/>
<text text-anchor="middle" x="399.79" y="-284.8" font-family="Times,serif" font-size="9.00">Data Gathering</text>
</g>
<!-- Resilient CLaDOS BT&#45;&gt;Data Gathering -->
<g id="edge1" class="edge">
<title>Resilient CLaDOS BT&#45;&gt;Data Gathering</title>
<path fill="none" stroke="black" d="M429.55,-340.92C424.89,-332.63 419.77,-323.51 415.1,-315.22"/>
<polygon fill="black" stroke="black" points="418.2,-313.59 410.25,-306.59 412.1,-317.02 418.2,-313.59"/>
</g>
<!-- Tasks -->
<g id="node4" class="node">
<title>Tasks</title>
<polygon fill="cyan" stroke="black" points="529.79,-279.54 529.79,-294.46 513.97,-305 491.61,-305 475.79,-294.46 475.79,-279.54 491.61,-269 513.97,-269 529.79,-279.54"/>
<text text-anchor="middle" x="502.79" y="-284.8" font-family="Times,serif" font-size="9.00">Tasks</text>
</g>
<!-- Resilient CLaDOS BT&#45;&gt;Tasks -->
<g id="edge3" class="edge">
<title>Resilient CLaDOS BT&#45;&gt;Tasks</title>
<path fill="none" stroke="black" d="M464.43,-340.92C470.73,-332.22 477.69,-322.61 483.94,-314"/>
<polygon fill="black" stroke="black" points="486.69,-316.17 489.72,-306.02 481.02,-312.06 486.69,-316.17"/>
</g>
<!-- Detection_to_BB -->
<g id="node3" class="node">
<title>Detection_to_BB</title>
<ellipse fill="gray" stroke="black" cx="372.79" cy="-215" rx="53.89" ry="18"/>
<text text-anchor="middle" x="372.79" y="-212.8" font-family="Times,serif" font-size="9.00">Detection_to_BB</text>
</g>
<!-- Data Gathering&#45;&gt;Detection_to_BB -->
<g id="edge2" class="edge">
<title>Data Gathering&#45;&gt;Detection_to_BB</title>
<path fill="none" stroke="black" d="M393.12,-268.7C390.21,-261.15 386.72,-252.12 383.47,-243.68"/>
<polygon fill="black" stroke="black" points="386.8,-242.59 379.93,-234.52 380.27,-245.11 386.8,-242.59"/>
</g>
<!-- /detection -->
<g id="node13" class="node">
<title>/detection</title>
<polygon fill="white" stroke="blue" points="218.29,-17 79.29,-17 79.29,0 218.29,0 218.29,-17"/>
<text text-anchor="middle" x="148.79" y="-6.6" font-family="Times,serif" font-size="8.00" fill="blue">/detection: Detection(categor...</text>
</g>
<!-- Detection_to_BB&#45;&gt;/detection -->
<g id="edge15" class="edge">
<title>Detection_to_BB&#45;&gt;/detection</title>
<path fill="none" stroke="blue" d="M318.51,-214.31C227.63,-213.54 50.77,-206.12 11.79,-161 -33.34,-108.77 69.37,-48.37 121.19,-22.43"/>
<polygon fill="blue" stroke="blue" points="122.59,-25.64 130.04,-18.1 119.52,-19.35 122.59,-25.64"/>
</g>
<!-- Can Viewing Selector -->
<g id="node5" class="node">
<title>Can Viewing Selector</title>
<polygon fill="cyan" stroke="black" points="589.27,-207.54 589.27,-222.46 546.81,-233 486.77,-233 444.31,-222.46 444.31,-207.54 486.77,-197 546.81,-197 589.27,-207.54"/>
<text text-anchor="middle" x="516.79" y="-212.8" font-family="Times,serif" font-size="9.00">Can Viewing Selector</text>
</g>
<!-- Tasks&#45;&gt;Can Viewing Selector -->
<g id="edge4" class="edge">
<title>Tasks&#45;&gt;Can Viewing Selector</title>
<path fill="none" stroke="black" d="M506.25,-268.7C507.73,-261.32 509.48,-252.52 511.14,-244.25"/>
<polygon fill="black" stroke="black" points="514.54,-245.08 513.07,-234.59 507.68,-243.71 514.54,-245.08"/>
</g>
<!-- Is the can in the center of the camera? -->
<g id="node6" class="node">
<title>Is the can in the center of the camera?</title>
<ellipse fill="ghostwhite" stroke="black" cx="133.79" cy="-143" rx="113.32" ry="18"/>
<text text-anchor="middle" x="133.79" y="-140.8" font-family="Times,serif" font-size="9.00">Is the can in the center of the camera?</text>
</g>
<!-- Can Viewing Selector&#45;&gt;Is the can in the center of the camera? -->
<g id="edge5" class="edge">
<title>Can Viewing Selector&#45;&gt;Is the can in the center of the camera?</title>
<path fill="none" stroke="black" d="M463.25,-202.5C454.1,-200.61 444.68,-198.71 435.79,-197 363.7,-183.11 281.63,-168.81 221.26,-158.56"/>
<polygon fill="black" stroke="black" points="222.19,-155.17 211.74,-156.95 221.02,-162.07 222.19,-155.17"/>
</g>
<!-- Is the can on the right side of the camera? -->
<g id="node8" class="node">
<title>Is the can on the right side of the camera?</title>
<ellipse fill="ghostwhite" stroke="black" cx="387.79" cy="-143" rx="122.95" ry="18"/>
<text text-anchor="middle" x="387.79" y="-140.8" font-family="Times,serif" font-size="9.00">Is the can on the right side of the camera?</text>
</g>
<!-- Can Viewing Selector&#45;&gt;Is the can on the right side of the camera? -->
<g id="edge7" class="edge">
<title>Can Viewing Selector&#45;&gt;Is the can on the right side of the camera?</title>
<path fill="none" stroke="black" d="M485.23,-196.88C468.19,-187.63 446.96,-176.11 428.67,-166.18"/>
<polygon fill="black" stroke="black" points="430.36,-163.12 419.91,-161.43 427.03,-169.27 430.36,-163.12"/>
</g>
<!-- Is the can on the left side of the camera? -->
<g id="node10" class="node">
<title>Is the can on the left side of the camera?</title>
<ellipse fill="ghostwhite" stroke="black" cx="646.79" cy="-143" rx="118.21" ry="18"/>
<text text-anchor="middle" x="646.79" y="-140.8" font-family="Times,serif" font-size="9.00">Is the can on the left side of the camera?</text>
</g>
<!-- Can Viewing Selector&#45;&gt;Is the can on the left side of the camera? -->
<g id="edge9" class="edge">
<title>Can Viewing Selector&#45;&gt;Is the can on the left side of the camera?</title>
<path fill="none" stroke="black" d="M548.26,-197.05C565.5,-187.77 587.09,-176.15 605.65,-166.15"/>
<polygon fill="black" stroke="black" points="607.13,-169.33 614.28,-161.51 603.81,-163.17 607.13,-169.33"/>
</g>
<!-- Logic error -->
<g id="node12" class="node">
<title>Logic error</title>
<ellipse fill="gray" stroke="black" cx="822.79" cy="-143" rx="39.67" ry="18"/>
<text text-anchor="middle" x="822.79" y="-140.8" font-family="Times,serif" font-size="9.00">Logic error</text>
</g>
<!-- Can Viewing Selector&#45;&gt;Logic error -->
<g id="edge11" class="edge">
<title>Can Viewing Selector&#45;&gt;Logic error</title>
<path fill="none" stroke="black" d="M576.52,-203.97C628.94,-194.62 707.03,-179.38 773.79,-161 776.39,-160.28 779.05,-159.5 781.73,-158.68"/>
<polygon fill="black" stroke="black" points="782.79,-162.02 791.22,-155.61 780.63,-155.36 782.79,-162.02"/>
</g>
<!-- Can in center -->
<g id="node7" class="node">
<title>Can in center</title>
<ellipse fill="gray" stroke="black" cx="133.79" cy="-71" rx="46.38" ry="18"/>
<text text-anchor="middle" x="133.79" y="-68.8" font-family="Times,serif" font-size="9.00">Can in center</text>
</g>
<!-- Is the can in the center of the camera?&#45;&gt;Can in center -->
<g id="edge6" class="edge">
<title>Is the can in the center of the camera?&#45;&gt;Can in center</title>
<path fill="none" stroke="black" d="M133.79,-124.7C133.79,-117.41 133.79,-108.73 133.79,-100.54"/>
<polygon fill="black" stroke="black" points="137.29,-100.62 133.79,-90.62 130.29,-100.62 137.29,-100.62"/>
</g>
<!-- Can on right side -->
<g id="node9" class="node">
<title>Can on right side</title>
<ellipse fill="gray" stroke="black" cx="387.79" cy="-71" rx="56.01" ry="18"/>
<text text-anchor="middle" x="387.79" y="-68.8" font-family="Times,serif" font-size="9.00">Can on right side</text>
</g>
<!-- Is the can on the right side of the camera?&#45;&gt;Can on right side -->
<g id="edge8" class="edge">
<title>Is the can on the right side of the camera?&#45;&gt;Can on right side</title>
<path fill="none" stroke="black" d="M387.79,-124.7C387.79,-117.41 387.79,-108.73 387.79,-100.54"/>
<polygon fill="black" stroke="black" points="391.29,-100.62 387.79,-90.62 384.29,-100.62 391.29,-100.62"/>
</g>
<!-- Can on left side -->
<g id="node11" class="node">
<title>Can on left side</title>
<ellipse fill="gray" stroke="black" cx="646.79" cy="-71" rx="51.27" ry="18"/>
<text text-anchor="middle" x="646.79" y="-68.8" font-family="Times,serif" font-size="9.00">Can on left side</text>
</g>
<!-- Is the can on the left side of the camera?&#45;&gt;Can on left side -->
<g id="edge10" class="edge">
<title>Is the can on the left side of the camera?&#45;&gt;Can on left side</title>
<path fill="none" stroke="black" d="M646.79,-124.7C646.79,-117.41 646.79,-108.73 646.79,-100.54"/>
<polygon fill="black" stroke="black" points="650.29,-100.62 646.79,-90.62 643.29,-100.62 650.29,-100.62"/>
</g>
<!-- /detection&#45;&gt;Is the can in the center of the camera? -->
<g id="edge14" class="edge">
<title>/detection&#45;&gt;Is the can in the center of the camera?</title>
<path fill="none" stroke="green" d="M159.67,-17.4C169.39,-25.2 182.98,-38.09 188.79,-53 194.6,-67.91 195.05,-74.28 188.79,-89 184.16,-99.89 176.07,-109.63 167.5,-117.7"/>
<polygon fill="green" stroke="green" points="165.28,-114.99 160.02,-124.19 169.87,-120.28 165.28,-114.99"/>
</g>
<!-- /detection&#45;&gt;Is the can on the right side of the camera? -->
<g id="edge13" class="edge">
<title>/detection&#45;&gt;Is the can on the right side of the camera?</title>
<path fill="none" stroke="green" d="M218.61,-9.34C298.79,-10.81 423.1,-18.76 452.79,-53 463.27,-65.09 459.65,-74.55 452.79,-89 447.29,-100.58 437.88,-110.46 427.91,-118.45"/>
<polygon fill="green" stroke="green" points="425.88,-115.6 419.91,-124.34 430.03,-121.23 425.88,-115.6"/>
</g>
<!-- /detection&#45;&gt;Is the can on the left side of the camera? -->
<g id="edge12" class="edge">
<title>/detection&#45;&gt;Is the can on the left side of the camera?</title>
<path fill="none" stroke="green" d="M218.59,-9.77C360.98,-11.04 674.27,-17.85 706.79,-53 725.33,-73.05 702.99,-99.31 680.48,-118.1"/>
<polygon fill="green" stroke="green" points="678.44,-115.25 672.8,-124.21 682.8,-120.73 678.44,-115.25"/>
</g>
</g>
</svg>
