<?xml version="1.0" encoding="UTF-8" standalone="no"?>
<!DOCTYPE svg PUBLIC "-//W3C//DTD SVG 1.1//EN"
 "http://www.w3.org/Graphics/SVG/1.1/DTD/svg11.dtd">
<!-- Generated by graphviz version 8.0.3 (0)
 -->
<!-- Title: pastafarianism Pages: 1 -->
<svg width="1332pt" height="385pt"
 viewBox="0.00 0.00 1331.85 385.00" xmlns="http://www.w3.org/2000/svg" xmlns:xlink="http://www.w3.org/1999/xlink">
<g id="graph0" class="graph" transform="scale(1 1) rotate(0) translate(4 381)">
<title>pastafarianism</title>
<polygon fill="white" stroke="none" points="-4,4 -4,-381 1327.85,-381 1327.85,4 -4,4"/>
<!-- Resilient CLaDOS BT -->
<g id="node1" class="node">
<title>Resilient CLaDOS BT</title>
<polygon fill="orange" stroke="black" points="519.25,-377 404.25,-377 404.25,-341 519.25,-341 519.25,-377"/>
<text text-anchor="middle" x="461.75" y="-356.8" font-family="Times,serif" font-size="9.00">Resilient CLaDOS BT</text>
</g>
<!-- Data Gathering -->
<g id="node2" class="node">
<title>Data Gathering</title>
<polygon fill="orange" stroke="black" points="298.25,-305 209.25,-305 209.25,-269 298.25,-269 298.25,-305"/>
<text text-anchor="middle" x="253.75" y="-284.8" font-family="Times,serif" font-size="9.00">Data Gathering</text>
</g>
<!-- Resilient CLaDOS BT&#45;&gt;Data Gathering -->
<g id="edge1" class="edge">
<title>Resilient CLaDOS BT&#45;&gt;Data Gathering</title>
<path fill="none" stroke="black" d="M409.8,-340.52C379.09,-330.18 340.24,-317.11 308.98,-306.59"/>
<polygon fill="black" stroke="black" points="310.28,-303 299.69,-303.13 308.05,-309.63 310.28,-303"/>
</g>
<!-- Tasks -->
<g id="node6" class="node">
<title>Tasks</title>
<polygon fill="cyan" stroke="black" points="749.75,-279.54 749.75,-294.46 733.93,-305 711.56,-305 695.75,-294.46 695.75,-279.54 711.56,-269 733.93,-269 749.75,-279.54"/>
<text text-anchor="middle" x="722.75" y="-284.8" font-family="Times,serif" font-size="9.00">Tasks</text>
</g>
<!-- Resilient CLaDOS BT&#45;&gt;Tasks -->
<g id="edge5" class="edge">
<title>Resilient CLaDOS BT&#45;&gt;Tasks</title>
<path fill="none" stroke="black" d="M519.67,-342.46C570.24,-328.9 642.11,-309.63 685.41,-298.01"/>
<polygon fill="black" stroke="black" points="686.28,-301.14 695.03,-295.16 684.47,-294.37 686.28,-301.14"/>
</g>
<!-- Distance Sensors To BB -->
<g id="node3" class="node">
<title>Distance Sensors To BB</title>
<ellipse fill="gray" stroke="black" cx="72.75" cy="-215" rx="72.99" ry="18"/>
<text text-anchor="middle" x="72.75" y="-212.8" font-family="Times,serif" font-size="9.00">Distance Sensors To BB</text>
</g>
<!-- Data Gathering&#45;&gt;Distance Sensors To BB -->
<g id="edge2" class="edge">
<title>Data Gathering&#45;&gt;Distance Sensors To BB</title>
<path fill="none" stroke="black" d="M209,-268.7C182.27,-258.36 148.31,-245.22 120.98,-234.65"/>
<polygon fill="black" stroke="black" points="122.44,-231.08 111.86,-230.74 119.92,-237.61 122.44,-231.08"/>
</g>
<!-- IMU To BB -->
<g id="node4" class="node">
<title>IMU To BB</title>
<ellipse fill="gray" stroke="black" cx="201.75" cy="-215" rx="38.87" ry="18"/>
<text text-anchor="middle" x="201.75" y="-212.8" font-family="Times,serif" font-size="9.00">IMU To BB</text>
</g>
<!-- Data Gathering&#45;&gt;IMU To BB -->
<g id="edge3" class="edge">
<title>Data Gathering&#45;&gt;IMU To BB</title>
<path fill="none" stroke="black" d="M240.89,-268.7C234.67,-260.32 227.08,-250.1 220.24,-240.9"/>
<polygon fill="black" stroke="black" points="222.51,-239.08 213.74,-233.14 216.89,-243.26 222.51,-239.08"/>
</g>
<!-- Camera To BB -->
<g id="node5" class="node">
<title>Camera To BB</title>
<ellipse fill="gray" stroke="black" cx="305.75" cy="-215" rx="47.19" ry="18"/>
<text text-anchor="middle" x="305.75" y="-212.8" font-family="Times,serif" font-size="9.00">Camera To BB</text>
</g>
<!-- Data Gathering&#45;&gt;Camera To BB -->
<g id="edge4" class="edge">
<title>Data Gathering&#45;&gt;Camera To BB</title>
<path fill="none" stroke="black" d="M266.6,-268.7C272.74,-260.44 280.2,-250.39 286.95,-241.3"/>
<polygon fill="black" stroke="black" points="290.24,-243.74 293.4,-233.62 284.63,-239.56 290.24,-243.74"/>
</g>
<!-- /is_robot_about_to_collide -->
<g id="node16" class="node">
<title>/is_robot_about_to_collide</title>
<polygon fill="white" stroke="blue" points="237.25,-17 112.25,-17 112.25,0 237.25,0 237.25,-17"/>
<text text-anchor="middle" x="174.75" y="-6.6" font-family="Times,serif" font-size="8.00" fill="blue">/is_robot_about_to_collide: &#45;</text>
</g>
<!-- Distance Sensors To BB&#45;&gt;/is_robot_about_to_collide -->
<g id="edge16" class="edge">
<title>Distance Sensors To BB&#45;&gt;/is_robot_about_to_collide</title>
<path fill="none" stroke="blue" d="M81.27,-196.92C100.44,-158.48 146.78,-65.56 166.09,-26.86"/>
<polygon fill="blue" stroke="blue" points="169.44,-28.99 170.77,-18.48 163.17,-25.86 169.44,-28.99"/>
</g>
<!-- /is_robot_stuck -->
<g id="node15" class="node">
<title>/is_robot_stuck</title>
<polygon fill="white" stroke="blue" points="338.25,-17 255.25,-17 255.25,0 338.25,0 338.25,-17"/>
<text text-anchor="middle" x="296.75" y="-6.6" font-family="Times,serif" font-size="8.00" fill="blue">/is_robot_stuck: &#45;</text>
</g>
<!-- IMU To BB&#45;&gt;/is_robot_stuck -->
<g id="edge14" class="edge">
<title>IMU To BB&#45;&gt;/is_robot_stuck</title>
<path fill="none" stroke="blue" d="M209.68,-196.92C227.46,-158.65 270.33,-66.35 288.45,-27.36"/>
<polygon fill="blue" stroke="blue" points="292,-29.02 293.04,-18.48 285.65,-26.07 292,-29.02"/>
</g>
<!-- /current_frame -->
<g id="node17" class="node">
<title>/current_frame</title>
<polygon fill="white" stroke="blue" points="441.25,-17 356.25,-17 356.25,0 441.25,0 441.25,-17"/>
<text text-anchor="middle" x="398.75" y="-6.6" font-family="Times,serif" font-size="8.00" fill="blue">/current_frame: &#45;</text>
</g>
<!-- Camera To BB&#45;&gt;/current_frame -->
<g id="edge17" class="edge">
<title>Camera To BB&#45;&gt;/current_frame</title>
<path fill="none" stroke="blue" d="M305.17,-196.97C304.93,-165.84 308.2,-98.72 337.75,-53 346.05,-40.16 359.59,-29.93 371.81,-22.64"/>
<polygon fill="blue" stroke="blue" points="373.16,-25.33 380.2,-17.41 369.76,-19.22 373.16,-25.33"/>
</g>
<!-- Crash subtree -->
<g id="node7" class="node">
<title>Crash subtree</title>
<polygon fill="cyan" stroke="black" points="474.23,-207.54 474.23,-222.46 444.07,-233 401.42,-233 371.26,-222.46 371.26,-207.54 401.42,-197 444.07,-197 474.23,-207.54"/>
<text text-anchor="middle" x="422.75" y="-212.8" font-family="Times,serif" font-size="9.00">Crash subtree</text>
</g>
<!-- Tasks&#45;&gt;Crash subtree -->
<g id="edge6" class="edge">
<title>Tasks&#45;&gt;Crash subtree</title>
<path fill="none" stroke="black" d="M695.27,-280.48C650.54,-271.37 559.3,-252.28 482.75,-233 479.17,-232.1 475.49,-231.14 471.79,-230.15"/>
<polygon fill="black" stroke="black" points="472.96,-226.57 462.39,-227.31 471.11,-233.32 472.96,-226.57"/>
</g>
<!-- About to enter the water -->
<g id="node10" class="node">
<title>About to enter the water</title>
<ellipse fill="gray" stroke="black" cx="567.75" cy="-215" rx="75.77" ry="18"/>
<text text-anchor="middle" x="567.75" y="-212.8" font-family="Times,serif" font-size="9.00">About to enter the water</text>
</g>
<!-- Tasks&#45;&gt;About to enter the water -->
<g id="edge9" class="edge">
<title>Tasks&#45;&gt;About to enter the water</title>
<path fill="none" stroke="black" d="M700.54,-275.97C677.48,-265.56 640.78,-248.98 611.8,-235.9"/>
<polygon fill="black" stroke="black" points="613.47,-232.36 602.91,-231.43 610.58,-238.74 613.47,-232.36"/>
</g>
<!-- Is stuck in the sand -->
<g id="node11" class="node">
<title>Is stuck in the sand</title>
<ellipse fill="gray" stroke="black" cx="722.75" cy="-215" rx="61.55" ry="18"/>
<text text-anchor="middle" x="722.75" y="-212.8" font-family="Times,serif" font-size="9.00">Is stuck in the sand</text>
</g>
<!-- Tasks&#45;&gt;Is stuck in the sand -->
<g id="edge10" class="edge">
<title>Tasks&#45;&gt;Is stuck in the sand</title>
<path fill="none" stroke="black" d="M722.75,-268.7C722.75,-261.24 722.75,-252.32 722.75,-243.97"/>
<polygon fill="black" stroke="black" points="726.25,-244.1 722.75,-234.1 719.25,-244.1 726.25,-244.1"/>
</g>
<!-- Has enough cans in tray or been more than x minutes -->
<g id="node12" class="node">
<title>Has enough cans in tray or been more than x minutes</title>
<ellipse fill="gray" stroke="black" cx="955.75" cy="-215" rx="153.65" ry="18"/>
<text text-anchor="middle" x="955.75" y="-212.8" font-family="Times,serif" font-size="9.00">Has enough cans in tray or been more than x minutes</text>
</g>
<!-- Tasks&#45;&gt;Has enough cans in tray or been more than x minutes -->
<g id="edge11" class="edge">
<title>Tasks&#45;&gt;Has enough cans in tray or been more than x minutes</title>
<path fill="none" stroke="black" d="M748.57,-278.24C782.72,-267.98 844.07,-249.55 891.17,-235.4"/>
<polygon fill="black" stroke="black" points="892.03,-238.5 900.6,-232.27 890.02,-231.79 892.03,-238.5"/>
</g>
<!-- Looking for can -->
<g id="node13" class="node">
<title>Looking for can</title>
<ellipse fill="gray" stroke="black" cx="1178.75" cy="-215" rx="51.27" ry="18"/>
<text text-anchor="middle" x="1178.75" y="-212.8" font-family="Times,serif" font-size="9.00">Looking for can</text>
</g>
<!-- Tasks&#45;&gt;Looking for can -->
<g id="edge12" class="edge">
<title>Tasks&#45;&gt;Looking for can</title>
<path fill="none" stroke="black" d="M749.86,-283.72C814.31,-278.01 981.55,-261.46 1118.75,-233 1122.63,-232.19 1126.64,-231.27 1130.64,-230.28"/>
<polygon fill="black" stroke="black" points="1131.39,-233.44 1140.18,-227.53 1129.62,-226.67 1131.39,-233.44"/>
</g>
<!-- Robot Lost -->
<g id="node14" class="node">
<title>Robot Lost</title>
<ellipse fill="gray" stroke="black" cx="1285.75" cy="-215" rx="38.21" ry="18"/>
<text text-anchor="middle" x="1285.75" y="-212.8" font-family="Times,serif" font-size="9.00">Robot Lost</text>
</g>
<!-- Tasks&#45;&gt;Robot Lost -->
<g id="edge13" class="edge">
<title>Tasks&#45;&gt;Robot Lost</title>
<path fill="none" stroke="black" d="M749.98,-285.54C827.45,-283.72 1055.26,-274.94 1238.75,-233 1241.58,-232.35 1244.48,-231.58 1247.38,-230.73"/>
<polygon fill="black" stroke="black" points="1248.3,-233.79 1256.75,-227.39 1246.16,-227.13 1248.3,-233.79"/>
</g>
<!-- About to crash? -->
<g id="node8" class="node">
<title>About to crash?</title>
<ellipse fill="ghostwhite" stroke="black" cx="422.75" cy="-143" rx="51.27" ry="18"/>
<text text-anchor="middle" x="422.75" y="-140.8" font-family="Times,serif" font-size="9.00">About to crash?</text>
</g>
<!-- Crash subtree&#45;&gt;About to crash? -->
<g id="edge7" class="edge">
<title>Crash subtree&#45;&gt;About to crash?</title>
<path fill="none" stroke="black" d="M422.75,-196.7C422.75,-189.24 422.75,-180.32 422.75,-171.97"/>
<polygon fill="black" stroke="black" points="426.25,-172.1 422.75,-162.1 419.25,-172.1 426.25,-172.1"/>
</g>
<!-- Backoff and spin subtree -->
<g id="node9" class="node">
<title>Backoff and spin subtree</title>
<ellipse fill="gray" stroke="black" cx="422.75" cy="-71" rx="76.42" ry="18"/>
<text text-anchor="middle" x="422.75" y="-68.8" font-family="Times,serif" font-size="9.00">Backoff and spin subtree</text>
</g>
<!-- About to crash?&#45;&gt;Backoff and spin subtree -->
<g id="edge8" class="edge">
<title>About to crash?&#45;&gt;Backoff and spin subtree</title>
<path fill="none" stroke="black" d="M422.75,-124.7C422.75,-117.24 422.75,-108.32 422.75,-99.97"/>
<polygon fill="black" stroke="black" points="426.25,-100.1 422.75,-90.1 419.25,-100.1 426.25,-100.1"/>
</g>
<!-- /is_robot_about_to_collide&#45;&gt;About to crash? -->
<g id="edge15" class="edge">
<title>/is_robot_about_to_collide&#45;&gt;About to crash?</title>
<path fill="none" stroke="green" d="M237.51,-16.65C332.77,-27.64 503.32,-47.95 507.75,-53 518.3,-65.02 515.51,-75.01 507.75,-89 498.94,-104.87 483.19,-116.6 467.62,-124.94"/>
<polygon fill="green" stroke="green" points="466.42,-122.13 459.02,-129.7 469.53,-128.4 466.42,-122.13"/>
</g>
</g>
</svg>
