<?xml version="1.0" encoding="UTF-8" standalone="no"?>
<!DOCTYPE svg PUBLIC "-//W3C//DTD SVG 1.1//EN"
 "http://www.w3.org/Graphics/SVG/1.1/DTD/svg11.dtd">
<!-- Generated by graphviz version 7.1.0 (0)
 -->
<!-- Title: pastafarianism Pages: 1 -->
<svg width="318pt" height="405pt"
 viewBox="0.00 0.00 318.00 405.00" xmlns="http://www.w3.org/2000/svg" xmlns:xlink="http://www.w3.org/1999/xlink">
<g id="graph0" class="graph" transform="scale(1 1) rotate(0) translate(4 401)">
<title>pastafarianism</title>
<polygon fill="white" stroke="none" points="-4,4 -4,-401 314,-401 314,4 -4,4"/>
<!-- Resilient CLaDOS BT -->
<g id="node1" class="node">
<title>Resilient CLaDOS BT</title>
<polygon fill="gold" stroke="black" points="267.72,-397 54.59,-397 -0.24,-341 212.89,-341 267.72,-397"/>
<text text-anchor="middle" x="133.74" y="-371.8" font-family="Times,serif" font-size="9.00">⚡ Resilient CLaDOS BT</text>
<text text-anchor="middle" x="133.74" y="-361.8" font-family="Times,serif" font-size="9.00">SuccessOnAll</text>
</g>
<!-- Data Gathering -->
<g id="node2" class="node">
<title>Data Gathering</title>
<polygon fill="orange" stroke="black" points="133.24,-305 44.24,-305 44.24,-269 133.24,-269 133.24,-305"/>
<text text-anchor="middle" x="88.74" y="-284.8" font-family="Times,serif" font-size="9.00">Data Gathering</text>
</g>
<!-- Resilient CLaDOS BT&#45;&gt;Data Gathering -->
<g id="edge1" class="edge">
<title>Resilient CLaDOS BT&#45;&gt;Data Gathering</title>
<path fill="none" stroke="black" d="M118.51,-340.92C113.84,-332.63 108.72,-323.51 104.05,-315.22"/>
<polygon fill="black" stroke="black" points="107.15,-313.59 99.2,-306.59 101.05,-317.02 107.15,-313.59"/>
</g>
<!-- Tasks -->
<g id="node4" class="node">
<title>Tasks</title>
<polygon fill="cyan" stroke="black" points="212.74,-279.54 212.74,-294.46 196.92,-305 174.56,-305 158.74,-294.46 158.74,-279.54 174.56,-269 196.92,-269 212.74,-279.54"/>
<text text-anchor="middle" x="185.74" y="-284.8" font-family="Times,serif" font-size="9.00">Tasks</text>
</g>
<!-- Resilient CLaDOS BT&#45;&gt;Tasks -->
<g id="edge3" class="edge">
<title>Resilient CLaDOS BT&#45;&gt;Tasks</title>
<path fill="none" stroke="black" d="M151.35,-340.92C156.85,-332.44 162.92,-323.11 168.41,-314.67"/>
<polygon fill="black" stroke="black" points="171.17,-316.83 173.69,-306.54 165.3,-313.02 171.17,-316.83"/>
</g>
<!-- Distance To BB -->
<g id="node3" class="node">
<title>Distance To BB</title>
<ellipse fill="gray" stroke="black" cx="74.74" cy="-215" rx="50.46" ry="18"/>
<text text-anchor="middle" x="74.74" y="-212.8" font-family="Times,serif" font-size="9.00">Distance To BB</text>
</g>
<!-- Data Gathering&#45;&gt;Distance To BB -->
<g id="edge2" class="edge">
<title>Data Gathering&#45;&gt;Distance To BB</title>
<path fill="none" stroke="black" d="M85.28,-268.7C83.81,-261.32 82.05,-252.52 80.39,-244.25"/>
<polygon fill="black" stroke="black" points="83.85,-243.71 78.46,-234.59 76.99,-245.08 83.85,-243.71"/>
</g>
<!-- /distance -->
<g id="node9" class="node">
<title>/distance</title>
<polygon fill="white" stroke="blue" points="137.24,-17 74.24,-17 74.24,0 137.24,0 137.24,-17"/>
<text text-anchor="middle" x="105.74" y="-6.6" font-family="Times,serif" font-size="8.00" fill="blue">/distance: 5</text>
</g>
<!-- Distance To BB&#45;&gt;/distance -->
<g id="edge10" class="edge">
<title>Distance To BB&#45;&gt;/distance</title>
<path fill="none" stroke="blue" d="M77.38,-196.56C83.15,-158.55 96.8,-68.47 102.81,-28.81"/>
<polygon fill="blue" stroke="blue" points="106.27,-29.35 104.31,-18.94 99.35,-28.3 106.27,-29.35"/>
</g>
<!-- Crash subtree -->
<g id="node5" class="node">
<title>Crash subtree</title>
<polygon fill="cyan" stroke="black" points="245.23,-207.54 245.23,-222.46 215.07,-233 172.41,-233 142.25,-222.46 142.25,-207.54 172.41,-197 215.07,-197 245.23,-207.54"/>
<text text-anchor="middle" x="193.74" y="-212.8" font-family="Times,serif" font-size="9.00">Crash subtree</text>
</g>
<!-- Tasks&#45;&gt;Crash subtree -->
<g id="edge4" class="edge">
<title>Tasks&#45;&gt;Crash subtree</title>
<path fill="none" stroke="black" d="M187.72,-268.7C188.55,-261.41 189.54,-252.73 190.48,-244.54"/>
<polygon fill="black" stroke="black" points="193.96,-244.94 191.61,-234.61 187,-244.15 193.96,-244.94"/>
</g>
<!-- About to crash? -->
<g id="node6" class="node">
<title>About to crash?</title>
<ellipse fill="ghostwhite" stroke="black" cx="161.74" cy="-143" rx="51.27" ry="18"/>
<text text-anchor="middle" x="161.74" y="-140.8" font-family="Times,serif" font-size="9.00">About to crash?</text>
</g>
<!-- Crash subtree&#45;&gt;About to crash? -->
<g id="edge5" class="edge">
<title>Crash subtree&#45;&gt;About to crash?</title>
<path fill="none" stroke="black" d="M185.83,-196.7C182.34,-189.07 178.16,-179.92 174.27,-171.4"/>
<polygon fill="black" stroke="black" points="177.53,-170.12 170.19,-162.48 171.16,-173.03 177.53,-170.12"/>
</g>
<!-- Go forward -->
<g id="node8" class="node">
<title>Go forward</title>
<ellipse fill="gray" stroke="black" cx="270.74" cy="-143" rx="39.02" ry="18"/>
<text text-anchor="middle" x="270.74" y="-140.8" font-family="Times,serif" font-size="9.00">Go forward</text>
</g>
<!-- Crash subtree&#45;&gt;Go forward -->
<g id="edge7" class="edge">
<title>Crash subtree&#45;&gt;Go forward</title>
<path fill="none" stroke="black" d="M212.77,-196.7C222.59,-187.78 234.69,-176.78 245.29,-167.14"/>
<polygon fill="black" stroke="black" points="247.6,-169.77 252.64,-160.45 242.89,-164.59 247.6,-169.77"/>
</g>
<!-- Go back -->
<g id="node7" class="node">
<title>Go back</title>
<ellipse fill="gray" stroke="black" cx="161.74" cy="-71" rx="31.35" ry="18"/>
<text text-anchor="middle" x="161.74" y="-68.8" font-family="Times,serif" font-size="9.00">Go back</text>
</g>
<!-- About to crash?&#45;&gt;Go back -->
<g id="edge6" class="edge">
<title>About to crash?&#45;&gt;Go back</title>
<path fill="none" stroke="black" d="M161.74,-124.7C161.74,-117.41 161.74,-108.73 161.74,-100.54"/>
<polygon fill="black" stroke="black" points="165.24,-100.62 161.74,-90.62 158.24,-100.62 165.24,-100.62"/>
</g>
<!-- /distance&#45;&gt;About to crash? -->
<g id="edge8" class="edge">
<title>/distance&#45;&gt;About to crash?</title>
<path fill="none" stroke="green" d="M137.52,-14.7C159.66,-20.17 187.66,-31.16 201.74,-53 214.86,-73.34 200.88,-98.7 185.96,-117.13"/>
<polygon fill="green" stroke="green" points="183.32,-114.83 179.43,-124.68 188.62,-119.41 183.32,-114.83"/>
</g>
<!-- /distance&#45;&gt;Go back -->
<g id="edge9" class="edge">
<title>/distance&#45;&gt;Go back</title>
<path fill="none" stroke="green" d="M113.01,-17.36C119.83,-24.73 130.39,-36.13 139.93,-46.44"/>
<polygon fill="green" stroke="green" points="137.22,-48.66 146.58,-53.62 142.36,-43.91 137.22,-48.66"/>
</g>
</g>
</svg>
