<?xml version="1.0" encoding="UTF-8" standalone="no"?>
<!DOCTYPE svg PUBLIC "-//W3C//DTD SVG 1.1//EN"
 "http://www.w3.org/Graphics/SVG/1.1/DTD/svg11.dtd">
<!-- Generated by graphviz version 8.0.1 (0)
 -->
<!-- Title: pastafarianism Pages: 1 -->
<svg width="1630pt" height="621pt"
 viewBox="0.00 0.00 1629.85 621.00" xmlns="http://www.w3.org/2000/svg" xmlns:xlink="http://www.w3.org/1999/xlink">
<g id="graph0" class="graph" transform="scale(1 1) rotate(0) translate(4 617)">
<title>pastafarianism</title>
<polygon fill="white" stroke="none" points="-4,4 -4,-617 1625.85,-617 1625.85,4 -4,4"/>
<!-- Resilient CLaDOS BT -->
<g id="node1" class="node">
<title>Resilient CLaDOS BT</title>
<polygon fill="gold" stroke="black" points="717.73,-613 504.59,-613 449.76,-557 662.9,-557 717.73,-613"/>
<text text-anchor="middle" x="583.75" y="-587.8" font-family="Times,serif" font-size="9.00">⚡ Resilient CLaDOS BT</text>
<text text-anchor="middle" x="583.75" y="-577.8" font-family="Times,serif" font-size="9.00">SuccessOnAll</text>
</g>
<!-- Data Gathering -->
<g id="node2" class="node">
<title>Data Gathering</title>
<polygon fill="orange" stroke="black" points="350.25,-521 261.25,-521 261.25,-485 350.25,-485 350.25,-521"/>
<text text-anchor="middle" x="305.75" y="-500.8" font-family="Times,serif" font-size="9.00">Data Gathering</text>
</g>
<!-- Resilient CLaDOS BT&#45;&gt;Data Gathering -->
<g id="edge1" class="edge">
<title>Resilient CLaDOS BT&#45;&gt;Data Gathering</title>
<path fill="none" stroke="black" d="M488.46,-556.58C445.98,-544.35 397.42,-530.38 361.05,-519.91"/>
<polygon fill="black" stroke="black" points="362.23,-516.32 351.65,-516.92 360.29,-523.05 362.23,-516.32"/>
</g>
<!-- Tasks -->
<g id="node8" class="node">
<title>Tasks</title>
<polygon fill="cyan" stroke="black" points="1005.75,-495.54 1005.75,-510.46 989.93,-521 967.56,-521 951.75,-510.46 951.75,-495.54 967.56,-485 989.93,-485 1005.75,-495.54"/>
<text text-anchor="middle" x="978.75" y="-500.8" font-family="Times,serif" font-size="9.00">Tasks</text>
</g>
<!-- Resilient CLaDOS BT&#45;&gt;Tasks -->
<g id="edge7" class="edge">
<title>Resilient CLaDOS BT&#45;&gt;Tasks</title>
<path fill="none" stroke="black" d="M672.39,-566.05C756.55,-549 879.04,-524.19 940.53,-511.74"/>
<polygon fill="black" stroke="black" points="941.17,-514.98 950.28,-509.56 939.78,-508.12 941.17,-514.98"/>
</g>
<!-- Distance Sensors To BB -->
<g id="node3" class="node">
<title>Distance Sensors To BB</title>
<ellipse fill="gray" stroke="black" cx="72.75" cy="-431" rx="72.99" ry="18"/>
<text text-anchor="middle" x="72.75" y="-428.8" font-family="Times,serif" font-size="9.00">Distance Sensors To BB</text>
</g>
<!-- Data Gathering&#45;&gt;Distance Sensors To BB -->
<g id="edge2" class="edge">
<title>Data Gathering&#45;&gt;Distance Sensors To BB</title>
<path fill="none" stroke="black" d="M260.82,-488.5C223.07,-477.16 168.94,-460.9 128.44,-448.73"/>
<polygon fill="black" stroke="black" points="129.51,-445.1 118.93,-445.57 127.5,-451.8 129.51,-445.1"/>
</g>
<!-- IMU To BB -->
<g id="node4" class="node">
<title>IMU To BB</title>
<ellipse fill="gray" stroke="black" cx="201.75" cy="-431" rx="38.87" ry="18"/>
<text text-anchor="middle" x="201.75" y="-428.8" font-family="Times,serif" font-size="9.00">IMU To BB</text>
</g>
<!-- Data Gathering&#45;&gt;IMU To BB -->
<g id="edge3" class="edge">
<title>Data Gathering&#45;&gt;IMU To BB</title>
<path fill="none" stroke="black" d="M279.77,-484.52C265.32,-474.79 247.26,-462.64 232.16,-452.47"/>
<polygon fill="black" stroke="black" points="234.44,-449.11 224.19,-446.43 230.53,-454.92 234.44,-449.11"/>
</g>
<!-- Camera To BB -->
<g id="node5" class="node">
<title>Camera To BB</title>
<ellipse fill="gray" stroke="black" cx="305.75" cy="-431" rx="47.19" ry="18"/>
<text text-anchor="middle" x="305.75" y="-428.8" font-family="Times,serif" font-size="9.00">Camera To BB</text>
</g>
<!-- Data Gathering&#45;&gt;Camera To BB -->
<g id="edge4" class="edge">
<title>Data Gathering&#45;&gt;Camera To BB</title>
<path fill="none" stroke="black" d="M305.75,-484.7C305.75,-477.24 305.75,-468.32 305.75,-459.97"/>
<polygon fill="black" stroke="black" points="309.25,-460.1 305.75,-450.1 302.25,-460.1 309.25,-460.1"/>
</g>
<!-- Init values to None -->
<g id="node6" class="node">
<title>Init values to None</title>
<ellipse fill="ghostwhite" stroke="black" cx="431.75" cy="-431" rx="60.74" ry="18"/>
<text text-anchor="middle" x="431.75" y="-428.8" font-family="Times,serif" font-size="9.00">Init values to None</text>
</g>
<!-- Data Gathering&#45;&gt;Init values to None -->
<g id="edge5" class="edge">
<title>Data Gathering&#45;&gt;Init values to None</title>
<path fill="none" stroke="black" d="M337.22,-484.52C354.64,-474.84 376.4,-462.75 394.65,-452.61"/>
<polygon fill="black" stroke="black" points="396.06,-455.27 403.1,-447.36 392.66,-449.16 396.06,-455.27"/>
</g>
<!-- /is_robot_about_to_collide -->
<g id="node30" class="node">
<title>/is_robot_about_to_collide</title>
<polygon fill="white" stroke="blue" points="465.25,-17 340.25,-17 340.25,0 465.25,0 465.25,-17"/>
<text text-anchor="middle" x="402.75" y="-6.6" font-family="Times,serif" font-size="8.00" fill="blue">/is_robot_about_to_collide: &#45;</text>
</g>
<!-- Distance Sensors To BB&#45;&gt;/is_robot_about_to_collide -->
<g id="edge33" class="edge">
<title>Distance Sensors To BB&#45;&gt;/is_robot_about_to_collide</title>
<path fill="none" stroke="blue" d="M86.09,-413C139.53,-344.9 337.73,-92.35 390.03,-25.71"/>
<polygon fill="blue" stroke="blue" points="393.23,-28.3 396.65,-18.27 387.72,-23.98 393.23,-28.3"/>
</g>
<!-- /is_robot_stuck -->
<g id="node33" class="node">
<title>/is_robot_stuck</title>
<polygon fill="white" stroke="blue" points="782.25,-17 699.25,-17 699.25,0 782.25,0 782.25,-17"/>
<text text-anchor="middle" x="740.75" y="-6.6" font-family="Times,serif" font-size="8.00" fill="blue">/is_robot_stuck: &#45;</text>
</g>
<!-- IMU To BB&#45;&gt;/is_robot_stuck -->
<g id="edge38" class="edge">
<title>IMU To BB&#45;&gt;/is_robot_stuck</title>
<path fill="none" stroke="blue" d="M211.15,-413.25C245.99,-352.91 374.48,-145.36 542.75,-53 588.06,-28.13 646.55,-17.48 688.19,-12.92"/>
<polygon fill="blue" stroke="blue" points="688.32,-16.32 697.92,-11.83 687.62,-9.35 688.32,-16.32"/>
</g>
<!-- /current_frame -->
<g id="node32" class="node">
<title>/current_frame</title>
<polygon fill="white" stroke="blue" points="1280.25,-17 1195.25,-17 1195.25,0 1280.25,0 1280.25,-17"/>
<text text-anchor="middle" x="1237.75" y="-6.6" font-family="Times,serif" font-size="8.00" fill="blue">/current_frame: &#45;</text>
</g>
<!-- Camera To BB&#45;&gt;/current_frame -->
<g id="edge37" class="edge">
<title>Camera To BB&#45;&gt;/current_frame</title>
<path fill="none" stroke="blue" d="M313.8,-412.79C329.92,-380.12 369.27,-308.84 422.75,-269 601.94,-135.51 662.12,-115.18 876.75,-53 905.55,-44.65 1090.5,-24.73 1183.91,-15.02"/>
<polygon fill="blue" stroke="blue" points="1184.25,-18.4 1193.84,-13.88 1183.53,-11.43 1184.25,-18.4"/>
</g>
<!-- Init values to None* -->
<g id="node7" class="node">
<title>Init values to None*</title>
<ellipse fill="gray" stroke="black" cx="430.75" cy="-359" rx="63.52" ry="18"/>
<text text-anchor="middle" x="430.75" y="-356.8" font-family="Times,serif" font-size="9.00">Init values to None*</text>
</g>
<!-- Init values to None&#45;&gt;Init values to None* -->
<g id="edge6" class="edge">
<title>Init values to None&#45;&gt;Init values to None*</title>
<path fill="none" stroke="black" d="M431.5,-412.7C431.39,-405.24 431.27,-396.32 431.15,-387.97"/>
<polygon fill="black" stroke="black" points="434.63,-388.05 430.99,-378.1 427.63,-388.15 434.63,-388.05"/>
</g>
<!-- /moving_start_time -->
<g id="node28" class="node">
<title>/moving_start_time</title>
<polygon fill="white" stroke="blue" points="1008.75,-17 908.75,-17 908.75,0 1008.75,0 1008.75,-17"/>
<text text-anchor="middle" x="958.75" y="-6.6" font-family="Times,serif" font-size="8.00" fill="blue">/moving_start_time: &#45;</text>
</g>
<!-- Init values to None*&#45;&gt;/moving_start_time -->
<g id="edge28" class="edge">
<title>Init values to None*&#45;&gt;/moving_start_time</title>
<path fill="none" stroke="blue" d="M427.35,-340.76C424.47,-320.43 423.41,-287.13 442.75,-269 526.26,-190.67 878.66,-316.75 956.75,-233 967.66,-221.3 965.57,-210.35 956.75,-197 934.24,-162.94 825.92,-139.47 787.75,-125 740.43,-107.07 709.33,-130.05 679.75,-89 670.39,-76.02 669.34,-65.15 679.75,-53 707.19,-20.94 823.9,-12.33 897.41,-10.13"/>
<polygon fill="blue" stroke="blue" points="897.46,-13.6 907.37,-9.84 897.28,-6.6 897.46,-13.6"/>
</g>
<!-- /detection -->
<g id="node29" class="node">
<title>/detection</title>
<polygon fill="white" stroke="blue" points="1146.25,-17 1081.25,-17 1081.25,0 1146.25,0 1146.25,-17"/>
<text text-anchor="middle" x="1113.75" y="-6.6" font-family="Times,serif" font-size="8.00" fill="blue">/detection: &#45;</text>
</g>
<!-- Init values to None*&#45;&gt;/detection -->
<g id="edge31" class="edge">
<title>Init values to None*&#45;&gt;/detection</title>
<path fill="none" stroke="blue" d="M436.37,-340.76C444.23,-319.78 460.64,-285.16 487.75,-269 580.77,-213.55 900.05,-312.35 973.75,-233 1045,-156.27 753.38,-132.31 821.75,-53 837.73,-34.45 992.57,-19.36 1070.05,-12.89"/>
<polygon fill="blue" stroke="blue" points="1070.21,-16.31 1079.89,-12 1069.64,-9.33 1070.21,-16.31"/>
</g>
<!-- /waiting_start_time -->
<g id="node31" class="node">
<title>/waiting_start_time</title>
<polygon fill="white" stroke="blue" points="1517.75,-17 1417.75,-17 1417.75,0 1517.75,0 1517.75,-17"/>
<text text-anchor="middle" x="1467.75" y="-6.6" font-family="Times,serif" font-size="8.00" fill="blue">/waiting_start_time: &#45;</text>
</g>
<!-- Init values to None*&#45;&gt;/waiting_start_time -->
<g id="edge35" class="edge">
<title>Init values to None*&#45;&gt;/waiting_start_time</title>
<path fill="none" stroke="blue" d="M447.97,-341.38C474.52,-315.77 522.57,-269.53 523.75,-269 619.19,-226.38 921.72,-309.69 992.75,-233 1054.93,-165.86 830.52,-120.11 892.75,-53 910.04,-34.35 1262.17,-17.9 1406.68,-11.91"/>
<polygon fill="blue" stroke="blue" points="1406.69,-15.37 1416.54,-11.46 1406.4,-8.38 1406.69,-15.37"/>
</g>
<!-- Crash subtree -->
<g id="node9" class="node">
<title>Crash subtree</title>
<polygon fill="cyan" stroke="black" points="614.23,-423.54 614.23,-438.46 584.07,-449 541.42,-449 511.26,-438.46 511.26,-423.54 541.42,-413 584.07,-413 614.23,-423.54"/>
<text text-anchor="middle" x="562.75" y="-428.8" font-family="Times,serif" font-size="9.00">Crash subtree</text>
</g>
<!-- Tasks&#45;&gt;Crash subtree -->
<g id="edge8" class="edge">
<title>Tasks&#45;&gt;Crash subtree</title>
<path fill="none" stroke="black" d="M951.29,-499.13C891.26,-492.59 744.01,-475.09 622.75,-449 619.09,-448.21 615.33,-447.33 611.55,-446.39"/>
<polygon fill="black" stroke="black" points="612.53,-442.77 601.97,-443.62 610.76,-449.54 612.53,-442.77"/>
</g>
<!-- About to enter the water -->
<g id="node12" class="node">
<title>About to enter the water</title>
<ellipse fill="gray" stroke="black" cx="707.75" cy="-431" rx="75.77" ry="18"/>
<text text-anchor="middle" x="707.75" y="-428.8" font-family="Times,serif" font-size="9.00">About to enter the water</text>
</g>
<!-- Tasks&#45;&gt;About to enter the water -->
<g id="edge11" class="edge">
<title>Tasks&#45;&gt;About to enter the water</title>
<path fill="none" stroke="black" d="M951.77,-495.03C909.23,-484.04 825.52,-462.42 768.11,-447.59"/>
<polygon fill="black" stroke="black" points="769.27,-444.02 758.72,-444.91 767.52,-450.8 769.27,-444.02"/>
</g>
<!-- Is stuck in the sand -->
<g id="node13" class="node">
<title>Is stuck in the sand</title>
<ellipse fill="gray" stroke="black" cx="862.75" cy="-431" rx="61.55" ry="18"/>
<text text-anchor="middle" x="862.75" y="-428.8" font-family="Times,serif" font-size="9.00">Is stuck in the sand</text>
</g>
<!-- Tasks&#45;&gt;Is stuck in the sand -->
<g id="edge12" class="edge">
<title>Tasks&#45;&gt;Is stuck in the sand</title>
<path fill="none" stroke="black" d="M959.07,-490.13C942.33,-480.02 917.88,-465.27 897.8,-453.15"/>
<polygon fill="black" stroke="black" points="900.01,-449.79 889.64,-447.62 896.39,-455.79 900.01,-449.79"/>
</g>
<!-- Has enough cans in tray or been more than x minutes -->
<g id="node14" class="node">
<title>Has enough cans in tray or been more than x minutes</title>
<ellipse fill="gray" stroke="black" cx="1095.75" cy="-431" rx="153.65" ry="18"/>
<text text-anchor="middle" x="1095.75" y="-428.8" font-family="Times,serif" font-size="9.00">Has enough cans in tray or been more than x minutes</text>
</g>
<!-- Tasks&#45;&gt;Has enough cans in tray or been more than x minutes -->
<g id="edge13" class="edge">
<title>Tasks&#45;&gt;Has enough cans in tray or been more than x minutes</title>
<path fill="none" stroke="black" d="M998.33,-490.28C1014.54,-480.58 1038.05,-466.52 1057.91,-454.63"/>
<polygon fill="black" stroke="black" points="1059.54,-457.14 1066.32,-449 1055.95,-451.14 1059.54,-457.14"/>
</g>
<!-- Look for can subtree -->
<g id="node15" class="node">
<title>Look for can subtree</title>
<polygon fill="cyan" stroke="black" points="1407.73,-423.54 1407.73,-438.46 1366.73,-449 1308.76,-449 1267.76,-438.46 1267.76,-423.54 1308.76,-413 1366.73,-413 1407.73,-423.54"/>
<text text-anchor="middle" x="1337.75" y="-428.8" font-family="Times,serif" font-size="9.00">Look for can subtree</text>
</g>
<!-- Tasks&#45;&gt;Look for can subtree -->
<g id="edge14" class="edge">
<title>Tasks&#45;&gt;Look for can subtree</title>
<path fill="none" stroke="black" d="M1006.21,-497.04C1056.43,-487.91 1166.37,-467.68 1258.75,-449 1264.03,-447.93 1269.5,-446.8 1274.99,-445.65"/>
<polygon fill="black" stroke="black" points="1275.45,-448.92 1284.52,-443.43 1274.01,-442.07 1275.45,-448.92"/>
</g>
<!-- Looking for can -->
<g id="node26" class="node">
<title>Looking for can</title>
<ellipse fill="gray" stroke="black" cx="1476.75" cy="-431" rx="51.27" ry="18"/>
<text text-anchor="middle" x="1476.75" y="-428.8" font-family="Times,serif" font-size="9.00">Looking for can</text>
</g>
<!-- Tasks&#45;&gt;Looking for can -->
<g id="edge25" class="edge">
<title>Tasks&#45;&gt;Looking for can</title>
<path fill="none" stroke="black" d="M1006.15,-500.17C1075.46,-495.23 1263.17,-479.85 1416.75,-449 1420.64,-448.22 1424.64,-447.31 1428.65,-446.33"/>
<polygon fill="black" stroke="black" points="1429.39,-449.5 1438.2,-443.61 1427.64,-442.72 1429.39,-449.5"/>
</g>
<!-- Robot Lost -->
<g id="node27" class="node">
<title>Robot Lost</title>
<ellipse fill="gray" stroke="black" cx="1583.75" cy="-431" rx="38.21" ry="18"/>
<text text-anchor="middle" x="1583.75" y="-428.8" font-family="Times,serif" font-size="9.00">Robot Lost</text>
</g>
<!-- Tasks&#45;&gt;Robot Lost -->
<g id="edge26" class="edge">
<title>Tasks&#45;&gt;Robot Lost</title>
<path fill="none" stroke="black" d="M1006.13,-501.83C1087.84,-500.8 1336.65,-493.93 1536.75,-449 1539.58,-448.36 1542.49,-447.6 1545.39,-446.76"/>
<polygon fill="black" stroke="black" points="1546.31,-449.82 1554.76,-443.43 1544.17,-443.15 1546.31,-449.82"/>
</g>
<!-- About to crash? -->
<g id="node10" class="node">
<title>About to crash?</title>
<ellipse fill="ghostwhite" stroke="black" cx="563.75" cy="-359" rx="51.27" ry="18"/>
<text text-anchor="middle" x="563.75" y="-356.8" font-family="Times,serif" font-size="9.00">About to crash?</text>
</g>
<!-- Crash subtree&#45;&gt;About to crash? -->
<g id="edge9" class="edge">
<title>Crash subtree&#45;&gt;About to crash?</title>
<path fill="none" stroke="black" d="M562.99,-412.7C563.1,-405.24 563.23,-396.32 563.35,-387.97"/>
<polygon fill="black" stroke="black" points="566.86,-388.15 563.5,-378.1 559.86,-388.05 566.86,-388.15"/>
</g>
<!-- Go back -->
<g id="node11" class="node">
<title>Go back</title>
<ellipse fill="gray" stroke="black" cx="563.75" cy="-287" rx="31.35" ry="18"/>
<text text-anchor="middle" x="563.75" y="-284.8" font-family="Times,serif" font-size="9.00">Go back</text>
</g>
<!-- About to crash?&#45;&gt;Go back -->
<g id="edge10" class="edge">
<title>About to crash?&#45;&gt;Go back</title>
<path fill="none" stroke="black" d="M563.75,-340.7C563.75,-333.24 563.75,-324.32 563.75,-315.97"/>
<polygon fill="black" stroke="black" points="567.25,-316.1 563.75,-306.1 560.25,-316.1 567.25,-316.1"/>
</g>
<!-- is not scanning the arena? -->
<g id="node16" class="node">
<title>is not scanning the arena?</title>
<ellipse fill="ghostwhite" stroke="black" cx="1268.75" cy="-359" rx="80" ry="18"/>
<text text-anchor="middle" x="1268.75" y="-356.8" font-family="Times,serif" font-size="9.00">is not scanning the arena?</text>
</g>
<!-- Look for can subtree&#45;&gt;is not scanning the arena? -->
<g id="edge15" class="edge">
<title>Look for can subtree&#45;&gt;is not scanning the arena?</title>
<path fill="none" stroke="black" d="M1320.69,-412.7C1312.29,-404.18 1302.03,-393.76 1292.85,-384.45"/>
<polygon fill="black" stroke="black" points="1295.64,-382.29 1286.13,-377.62 1290.66,-387.2 1295.64,-382.29"/>
</g>
<!-- Scan arena -->
<g id="node25" class="node">
<title>Scan arena</title>
<ellipse fill="gray" stroke="black" cx="1406.75" cy="-359" rx="39.02" ry="18"/>
<text text-anchor="middle" x="1406.75" y="-356.8" font-family="Times,serif" font-size="9.00">Scan arena</text>
</g>
<!-- Look for can subtree&#45;&gt;Scan arena -->
<g id="edge24" class="edge">
<title>Look for can subtree&#45;&gt;Scan arena</title>
<path fill="none" stroke="black" d="M1354.8,-412.7C1363.53,-403.84 1374.28,-392.93 1383.74,-383.34"/>
<polygon fill="black" stroke="black" points="1385.77,-386.25 1390.3,-376.67 1380.79,-381.34 1385.77,-386.25"/>
</g>
<!-- Can found -->
<g id="node17" class="node">
<title>Can found</title>
<polygon fill="orange" stroke="black" points="1300.75,-305 1236.75,-305 1236.75,-269 1300.75,-269 1300.75,-305"/>
<text text-anchor="middle" x="1268.75" y="-284.8" font-family="Times,serif" font-size="9.00">Can found</text>
</g>
<!-- is not scanning the arena?&#45;&gt;Can found -->
<g id="edge16" class="edge">
<title>is not scanning the arena?&#45;&gt;Can found</title>
<path fill="none" stroke="black" d="M1268.75,-340.7C1268.75,-333.24 1268.75,-324.32 1268.75,-315.97"/>
<polygon fill="black" stroke="black" points="1272.25,-316.1 1268.75,-306.1 1265.25,-316.1 1272.25,-316.1"/>
</g>
<!-- Get Detection -->
<g id="node18" class="node">
<title>Get Detection</title>
<polygon fill="cyan" stroke="black" points="1243.48,-207.54 1243.48,-222.46 1213.76,-233 1171.73,-233 1142.01,-222.46 1142.01,-207.54 1171.73,-197 1213.76,-197 1243.48,-207.54"/>
<text text-anchor="middle" x="1192.75" y="-212.8" font-family="Times,serif" font-size="9.00">Get Detection</text>
</g>
<!-- Can found&#45;&gt;Get Detection -->
<g id="edge17" class="edge">
<title>Can found&#45;&gt;Get Detection</title>
<path fill="none" stroke="black" d="M1249.96,-268.7C1240.82,-260.28 1229.68,-250.02 1219.66,-240.79"/>
<polygon fill="black" stroke="black" points="1222.31,-238.55 1212.58,-234.35 1217.56,-243.7 1222.31,-238.55"/>
</g>
<!-- calcoffset and move motors -->
<g id="node24" class="node">
<title>calcoffset and move motors</title>
<ellipse fill="gray" stroke="black" cx="1343.75" cy="-215" rx="82.62" ry="18"/>
<text text-anchor="middle" x="1343.75" y="-212.8" font-family="Times,serif" font-size="9.00">calcoffset and move motors</text>
</g>
<!-- Can found&#45;&gt;calcoffset and move motors -->
<g id="edge23" class="edge">
<title>Can found&#45;&gt;calcoffset and move motors</title>
<path fill="none" stroke="black" d="M1287.29,-268.7C1296.53,-260.07 1307.85,-249.5 1317.93,-240.1"/>
<polygon fill="black" stroke="black" points="1319.76,-243.24 1324.68,-233.86 1314.98,-238.13 1319.76,-243.24"/>
</g>
<!-- exists detection? -->
<g id="node19" class="node">
<title>exists detection?</title>
<ellipse fill="ghostwhite" stroke="black" cx="1077.75" cy="-143" rx="54.04" ry="18"/>
<text text-anchor="middle" x="1077.75" y="-140.8" font-family="Times,serif" font-size="9.00">exists detection?</text>
</g>
<!-- Get Detection&#45;&gt;exists detection? -->
<g id="edge18" class="edge">
<title>Get Detection&#45;&gt;exists detection?</title>
<path fill="none" stroke="black" d="M1166.94,-198.29C1150.73,-188.43 1129.65,-175.59 1112.05,-164.88"/>
<polygon fill="black" stroke="black" points="1114.04,-161.39 1103.68,-159.18 1110.4,-167.37 1114.04,-161.39"/>
</g>
<!-- Search for can with TF -->
<g id="node21" class="node">
<title>Search for can with TF</title>
<polygon fill="orange" stroke="black" points="1329.75,-161 1207.75,-161 1207.75,-125 1329.75,-125 1329.75,-161"/>
<text text-anchor="middle" x="1268.75" y="-140.8" font-family="Times,serif" font-size="9.00">Search for can with TF</text>
</g>
<!-- Get Detection&#45;&gt;Search for can with TF -->
<g id="edge20" class="edge">
<title>Get Detection&#45;&gt;Search for can with TF</title>
<path fill="none" stroke="black" d="M1211.53,-196.7C1220.67,-188.28 1231.81,-178.02 1241.83,-168.79"/>
<polygon fill="black" stroke="black" points="1243.93,-171.7 1248.91,-162.35 1239.19,-166.55 1243.93,-171.7"/>
</g>
<!-- calculate detection with computer vision -->
<g id="node20" class="node">
<title>calculate detection with computer vision</title>
<ellipse fill="gray" stroke="black" cx="1020.75" cy="-71" rx="118.87" ry="18"/>
<text text-anchor="middle" x="1020.75" y="-68.8" font-family="Times,serif" font-size="9.00">calculate detection with computer vision</text>
</g>
<!-- exists detection?&#45;&gt;calculate detection with computer vision -->
<g id="edge19" class="edge">
<title>exists detection?&#45;&gt;calculate detection with computer vision</title>
<path fill="none" stroke="black" d="M1064.24,-125.41C1057.38,-116.99 1048.91,-106.58 1041.27,-97.2"/>
<polygon fill="black" stroke="black" points="1043.58,-95.5 1034.55,-89.96 1038.15,-99.92 1043.58,-95.5"/>
</g>
<!-- Search for can with TF* -->
<g id="node22" class="node">
<title>Search for can with TF*</title>
<ellipse fill="gray" stroke="black" cx="1268.75" cy="-71" rx="73.15" ry="18"/>
<text text-anchor="middle" x="1268.75" y="-68.8" font-family="Times,serif" font-size="9.00">Search for can with TF*</text>
</g>
<!-- Search for can with TF&#45;&gt;Search for can with TF* -->
<g id="edge21" class="edge">
<title>Search for can with TF&#45;&gt;Search for can with TF*</title>
<path fill="none" stroke="black" d="M1268.75,-124.7C1268.75,-117.24 1268.75,-108.32 1268.75,-99.97"/>
<polygon fill="black" stroke="black" points="1272.25,-100.1 1268.75,-90.1 1265.25,-100.1 1272.25,-100.1"/>
</g>
<!-- is there a detection in BB? -->
<g id="node23" class="node">
<title>is there a detection in BB?</title>
<ellipse fill="gray" stroke="black" cx="1440.75" cy="-71" rx="80.66" ry="18"/>
<text text-anchor="middle" x="1440.75" y="-68.8" font-family="Times,serif" font-size="9.00">is there a detection in BB?</text>
</g>
<!-- Search for can with TF&#45;&gt;is there a detection in BB? -->
<g id="edge22" class="edge">
<title>Search for can with TF&#45;&gt;is there a detection in BB?</title>
<path fill="none" stroke="black" d="M1311.71,-124.52C1336.37,-114.48 1367.39,-101.85 1392.84,-91.5"/>
<polygon fill="black" stroke="black" points="1394.07,-94.37 1402.01,-87.36 1391.43,-87.89 1394.07,-94.37"/>
</g>
<!-- Search for can with TF*&#45;&gt;/detection -->
<g id="edge30" class="edge">
<title>Search for can with TF*&#45;&gt;/detection</title>
<path fill="none" stroke="blue" d="M1230.83,-55.2C1204.17,-44.79 1168.96,-31.05 1144.14,-21.36"/>
<polygon fill="blue" stroke="blue" points="1145.78,-17.86 1135.19,-17.48 1143.23,-24.38 1145.78,-17.86"/>
</g>
<!-- /moving_start_time&#45;&gt;is not scanning the arena? -->
<g id="edge27" class="edge">
<title>/moving_start_time&#45;&gt;is not scanning the arena?</title>
<path fill="none" stroke="green" d="M1009.06,-12.88C1147.87,-22.25 1526.32,-48.23 1530.75,-53 1561.49,-86.17 1466.76,-200.08 1435.75,-233 1396.19,-274.98 1341.21,-313.11 1305.32,-335.93"/>
<polygon fill="green" stroke="green" points="1303.78,-333.39 1297.17,-341.67 1307.5,-339.31 1303.78,-333.39"/>
</g>
<!-- /detection&#45;&gt;exists detection? -->
<g id="edge29" class="edge">
<title>/detection&#45;&gt;exists detection?</title>
<path fill="none" stroke="green" d="M1122.97,-17.39C1131.52,-25.37 1143.66,-38.56 1148.75,-53 1154.06,-68.09 1155.92,-74.7 1148.75,-89 1141.87,-102.72 1129.56,-113.8 1117.11,-122.21"/>
<polygon fill="green" stroke="green" points="1115.71,-119.58 1109.09,-127.86 1119.42,-125.51 1115.71,-119.58"/>
</g>
<!-- /is_robot_about_to_collide&#45;&gt;About to crash? -->
<g id="edge32" class="edge">
<title>/is_robot_about_to_collide&#45;&gt;About to crash?</title>
<path fill="none" stroke="green" d="M436.04,-17.43C570.48,-49.59 1067.06,-169.89 1087.75,-197 1097.45,-209.72 1097.66,-220.44 1087.75,-233 1030.51,-305.5 749.6,-340.54 624.29,-352.76"/>
<polygon fill="green" stroke="green" points="624,-349.37 614.38,-353.81 624.67,-356.34 624,-349.37"/>
</g>
<!-- /waiting_start_time&#45;&gt;is not scanning the arena? -->
<g id="edge34" class="edge">
<title>/waiting_start_time&#45;&gt;is not scanning the arena?</title>
<path fill="none" stroke="green" d="M1509.18,-17.36C1529.28,-23.48 1551.65,-34.24 1563.75,-53 1572.42,-66.45 1568.35,-73.68 1563.75,-89 1529.55,-202.92 1503.2,-236.81 1405.75,-305 1383.07,-320.86 1355.01,-332.8 1330.2,-341.29"/>
<polygon fill="green" stroke="green" points="1329.19,-338.27 1320.79,-344.72 1331.38,-344.91 1329.19,-338.27"/>
</g>
<!-- /current_frame&#45;&gt;Search for can with TF* -->
<g id="edge36" class="edge">
<title>/current_frame&#45;&gt;Search for can with TF*</title>
<path fill="none" stroke="green" d="M1241.84,-17.5C1245.21,-24.07 1250.19,-33.79 1254.95,-43.08"/>
<polygon fill="green" stroke="green" points="1252.27,-44.52 1259.95,-51.82 1258.5,-41.33 1252.27,-44.52"/>
</g>
</g>
</svg>
