<?xml version="1.0" encoding="UTF-8" standalone="no"?>
<!DOCTYPE svg PUBLIC "-//W3C//DTD SVG 1.1//EN"
 "http://www.w3.org/Graphics/SVG/1.1/DTD/svg11.dtd">
<!-- Generated by graphviz version 7.1.0 (0)
 -->
<!-- Title: pastafarianism Pages: 1 -->
<svg width="1033pt" height="405pt"
 viewBox="0.00 0.00 1032.85 405.00" xmlns="http://www.w3.org/2000/svg" xmlns:xlink="http://www.w3.org/1999/xlink">
<g id="graph0" class="graph" transform="scale(1 1) rotate(0) translate(4 401)">
<title>pastafarianism</title>
<polygon fill="white" stroke="none" points="-4,4 -4,-401 1028.85,-401 1028.85,4 -4,4"/>
<!-- Resilient CLaDOS BT -->
<g id="node1" class="node">
<title>Resilient CLaDOS BT</title>
<polygon fill="gold" stroke="black" points="518.73,-397 305.59,-397 250.76,-341 463.9,-341 518.73,-397"/>
<text text-anchor="middle" x="384.75" y="-371.8" font-family="Times,serif" font-size="9.00">⚡ Resilient CLaDOS BT</text>
<text text-anchor="middle" x="384.75" y="-361.8" font-family="Times,serif" font-size="9.00">SuccessOnAll</text>
</g>
<!-- Data Gathering -->
<g id="node2" class="node">
<title>Data Gathering</title>
<polygon fill="orange" stroke="black" points="298.25,-305 209.25,-305 209.25,-269 298.25,-269 298.25,-305"/>
<text text-anchor="middle" x="253.75" y="-284.8" font-family="Times,serif" font-size="9.00">Data Gathering</text>
</g>
<!-- Resilient CLaDOS BT&#45;&gt;Data Gathering -->
<g id="edge1" class="edge">
<title>Resilient CLaDOS BT&#45;&gt;Data Gathering</title>
<path fill="none" stroke="black" d="M340.03,-340.69C324.34,-331.11 306.88,-320.45 291.79,-311.23"/>
<polygon fill="black" stroke="black" points="293.91,-308.43 283.56,-306.2 290.27,-314.4 293.91,-308.43"/>
</g>
<!-- Tasks -->
<g id="node6" class="node">
<title>Tasks</title>
<polygon fill="cyan" stroke="black" points="678.75,-279.54 678.75,-294.46 662.93,-305 640.56,-305 624.75,-294.46 624.75,-279.54 640.56,-269 662.93,-269 678.75,-279.54"/>
<text text-anchor="middle" x="651.75" y="-284.8" font-family="Times,serif" font-size="9.00">Tasks</text>
</g>
<!-- Resilient CLaDOS BT&#45;&gt;Tasks -->
<g id="edge5" class="edge">
<title>Resilient CLaDOS BT&#45;&gt;Tasks</title>
<path fill="none" stroke="black" d="M466.67,-343.45C516.34,-328.57 577.26,-310.32 615.31,-298.92"/>
<polygon fill="black" stroke="black" points="615.85,-302.41 624.42,-296.19 613.84,-295.71 615.85,-302.41"/>
</g>
<!-- Distance Sensors To BB -->
<g id="node3" class="node">
<title>Distance Sensors To BB</title>
<ellipse fill="gray" stroke="black" cx="72.75" cy="-215" rx="72.99" ry="18"/>
<text text-anchor="middle" x="72.75" y="-212.8" font-family="Times,serif" font-size="9.00">Distance Sensors To BB</text>
</g>
<!-- Data Gathering&#45;&gt;Distance Sensors To BB -->
<g id="edge2" class="edge">
<title>Data Gathering&#45;&gt;Distance Sensors To BB</title>
<path fill="none" stroke="black" d="M209,-268.7C182.39,-258.4 148.61,-245.34 121.34,-234.79"/>
<polygon fill="black" stroke="black" points="122.86,-231.63 112.27,-231.28 120.33,-238.16 122.86,-231.63"/>
</g>
<!-- IMU To BB -->
<g id="node4" class="node">
<title>IMU To BB</title>
<ellipse fill="gray" stroke="black" cx="201.75" cy="-215" rx="38.87" ry="18"/>
<text text-anchor="middle" x="201.75" y="-212.8" font-family="Times,serif" font-size="9.00">IMU To BB</text>
</g>
<!-- Data Gathering&#45;&gt;IMU To BB -->
<g id="edge3" class="edge">
<title>Data Gathering&#45;&gt;IMU To BB</title>
<path fill="none" stroke="black" d="M240.89,-268.7C234.73,-260.4 227.23,-250.31 220.46,-241.19"/>
<polygon fill="black" stroke="black" points="223.41,-239.3 214.64,-233.36 217.8,-243.47 223.41,-239.3"/>
</g>
<!-- Camera To BB -->
<g id="node5" class="node">
<title>Camera To BB</title>
<ellipse fill="gray" stroke="black" cx="305.75" cy="-215" rx="47.19" ry="18"/>
<text text-anchor="middle" x="305.75" y="-212.8" font-family="Times,serif" font-size="9.00">Camera To BB</text>
</g>
<!-- Data Gathering&#45;&gt;Camera To BB -->
<g id="edge4" class="edge">
<title>Data Gathering&#45;&gt;Camera To BB</title>
<path fill="none" stroke="black" d="M266.6,-268.7C272.67,-260.52 280.04,-250.6 286.74,-241.58"/>
<polygon fill="black" stroke="black" points="289.34,-243.95 292.5,-233.84 283.72,-239.78 289.34,-243.95"/>
</g>
<!-- /is_robot_about_to_collide -->
<g id="node16" class="node">
<title>/is_robot_about_to_collide</title>
<polygon fill="white" stroke="blue" points="157.25,-17 32.25,-17 32.25,0 157.25,0 157.25,-17"/>
<text text-anchor="middle" x="94.75" y="-6.6" font-family="Times,serif" font-size="8.00" fill="blue">/is_robot_about_to_collide: &#45;</text>
</g>
<!-- Distance Sensors To BB&#45;&gt;/is_robot_about_to_collide -->
<g id="edge15" class="edge">
<title>Distance Sensors To BB&#45;&gt;/is_robot_about_to_collide</title>
<path fill="none" stroke="blue" d="M74.62,-196.56C78.71,-158.55 88.4,-68.47 92.67,-28.81"/>
<polygon fill="blue" stroke="blue" points="96.14,-29.26 93.73,-18.95 89.18,-28.52 96.14,-29.26"/>
</g>
<!-- /is_robot_stuck -->
<g id="node15" class="node">
<title>/is_robot_stuck</title>
<polygon fill="white" stroke="blue" points="258.25,-17 175.25,-17 175.25,0 258.25,0 258.25,-17"/>
<text text-anchor="middle" x="216.75" y="-6.6" font-family="Times,serif" font-size="8.00" fill="blue">/is_robot_stuck: &#45;</text>
</g>
<!-- IMU To BB&#45;&gt;/is_robot_stuck -->
<g id="edge14" class="edge">
<title>IMU To BB&#45;&gt;/is_robot_stuck</title>
<path fill="none" stroke="blue" d="M203.03,-196.56C205.81,-158.55 212.42,-68.47 215.33,-28.81"/>
<polygon fill="blue" stroke="blue" points="218.81,-29.18 216.05,-18.95 211.83,-28.67 218.81,-29.18"/>
</g>
<!-- /current_frame -->
<g id="node18" class="node">
<title>/current_frame</title>
<polygon fill="white" stroke="blue" points="361.25,-17 276.25,-17 276.25,0 361.25,0 361.25,-17"/>
<text text-anchor="middle" x="318.75" y="-6.6" font-family="Times,serif" font-size="8.00" fill="blue">/current_frame: &#45;</text>
</g>
<!-- Camera To BB&#45;&gt;/current_frame -->
<g id="edge18" class="edge">
<title>Camera To BB&#45;&gt;/current_frame</title>
<path fill="none" stroke="blue" d="M291.7,-197.57C284.18,-187.68 275.68,-174.43 271.75,-161 267.24,-145.65 269.59,-140.85 271.75,-125 276.23,-92.09 278.41,-83.42 291.75,-53 295.72,-43.93 301.35,-34.52 306.44,-26.78"/>
<polygon fill="blue" stroke="blue" points="309.21,-28.93 311.98,-18.7 303.44,-24.97 309.21,-28.93"/>
</g>
<!-- Crash subtree -->
<g id="node7" class="node">
<title>Crash subtree</title>
<polygon fill="cyan" stroke="black" points="474.23,-207.54 474.23,-222.46 444.07,-233 401.42,-233 371.26,-222.46 371.26,-207.54 401.42,-197 444.07,-197 474.23,-207.54"/>
<text text-anchor="middle" x="422.75" y="-212.8" font-family="Times,serif" font-size="9.00">Crash subtree</text>
</g>
<!-- Tasks&#45;&gt;Crash subtree -->
<g id="edge6" class="edge">
<title>Tasks&#45;&gt;Crash subtree</title>
<path fill="none" stroke="black" d="M626.36,-278.24C589.17,-266.87 519.14,-245.47 471.72,-230.97"/>
<polygon fill="black" stroke="black" points="472.81,-227.64 462.23,-228.07 470.77,-234.34 472.81,-227.64"/>
</g>
<!-- About to enter the water -->
<g id="node11" class="node">
<title>About to enter the water</title>
<ellipse fill="gray" stroke="black" cx="567.75" cy="-215" rx="75.77" ry="18"/>
<text text-anchor="middle" x="567.75" y="-212.8" font-family="Times,serif" font-size="9.00">About to enter the water</text>
</g>
<!-- Tasks&#45;&gt;About to enter the water -->
<g id="edge10" class="edge">
<title>Tasks&#45;&gt;About to enter the water</title>
<path fill="none" stroke="black" d="M635.15,-272.17C624.12,-262.98 609.34,-250.66 596.43,-239.9"/>
<polygon fill="black" stroke="black" points="598.95,-237.45 589.03,-233.73 594.47,-242.82 598.95,-237.45"/>
</g>
<!-- Has enough cans in tray -->
<g id="node12" class="node">
<title>Has enough cans in tray</title>
<ellipse fill="gray" stroke="black" cx="735.75" cy="-215" rx="74.46" ry="18"/>
<text text-anchor="middle" x="735.75" y="-212.8" font-family="Times,serif" font-size="9.00">Has enough cans in tray</text>
</g>
<!-- Tasks&#45;&gt;Has enough cans in tray -->
<g id="edge11" class="edge">
<title>Tasks&#45;&gt;Has enough cans in tray</title>
<path fill="none" stroke="black" d="M668.34,-272.17C679.37,-262.98 694.15,-250.66 707.06,-239.9"/>
<polygon fill="black" stroke="black" points="709.03,-242.82 714.47,-233.73 704.54,-237.45 709.03,-242.82"/>
</g>
<!-- Looking for can -->
<g id="node13" class="node">
<title>Looking for can</title>
<ellipse fill="gray" stroke="black" cx="879.75" cy="-215" rx="51.27" ry="18"/>
<text text-anchor="middle" x="879.75" y="-212.8" font-family="Times,serif" font-size="9.00">Looking for can</text>
</g>
<!-- Tasks&#45;&gt;Looking for can -->
<g id="edge12" class="edge">
<title>Tasks&#45;&gt;Looking for can</title>
<path fill="none" stroke="black" d="M677.46,-278.11C714.65,-266.69 784.16,-245.35 831.2,-230.91"/>
<polygon fill="black" stroke="black" points="832.07,-234.3 840.6,-228.02 830.01,-227.61 832.07,-234.3"/>
</g>
<!-- Robot Lost -->
<g id="node14" class="node">
<title>Robot Lost</title>
<ellipse fill="gray" stroke="black" cx="986.75" cy="-215" rx="38.21" ry="18"/>
<text text-anchor="middle" x="986.75" y="-212.8" font-family="Times,serif" font-size="9.00">Robot Lost</text>
</g>
<!-- Tasks&#45;&gt;Robot Lost -->
<g id="edge13" class="edge">
<title>Tasks&#45;&gt;Robot Lost</title>
<path fill="none" stroke="black" d="M679.08,-282.5C730.64,-275.57 845.53,-258.52 939.75,-233 942.16,-232.35 944.63,-231.62 947.11,-230.86"/>
<polygon fill="black" stroke="black" points="948.07,-234.22 956.47,-227.75 945.87,-227.58 948.07,-234.22"/>
</g>
<!-- About to crash? -->
<g id="node8" class="node">
<title>About to crash?</title>
<ellipse fill="ghostwhite" stroke="black" cx="331.75" cy="-143" rx="51.27" ry="18"/>
<text text-anchor="middle" x="331.75" y="-140.8" font-family="Times,serif" font-size="9.00">About to crash?</text>
</g>
<!-- Crash subtree&#45;&gt;About to crash? -->
<g id="edge7" class="edge">
<title>Crash subtree&#45;&gt;About to crash?</title>
<path fill="none" stroke="black" d="M400.72,-197.05C388.87,-187.94 374.09,-176.57 361.26,-166.7"/>
<polygon fill="black" stroke="black" points="363.58,-164.08 353.52,-160.75 359.32,-169.62 363.58,-164.08"/>
</g>
<!-- Go forward -->
<g id="node10" class="node">
<title>Go forward</title>
<ellipse fill="gray" stroke="black" cx="440.75" cy="-143" rx="39.02" ry="18"/>
<text text-anchor="middle" x="440.75" y="-140.8" font-family="Times,serif" font-size="9.00">Go forward</text>
</g>
<!-- Crash subtree&#45;&gt;Go forward -->
<g id="edge9" class="edge">
<title>Crash subtree&#45;&gt;Go forward</title>
<path fill="none" stroke="black" d="M427.2,-196.7C429.09,-189.32 431.35,-180.52 433.48,-172.25"/>
<polygon fill="black" stroke="black" points="436.87,-173.13 435.97,-162.57 430.09,-171.38 436.87,-173.13"/>
</g>
<!-- Go back -->
<g id="node9" class="node">
<title>Go back</title>
<ellipse fill="gray" stroke="black" cx="331.75" cy="-71" rx="31.35" ry="18"/>
<text text-anchor="middle" x="331.75" y="-68.8" font-family="Times,serif" font-size="9.00">Go back</text>
</g>
<!-- About to crash?&#45;&gt;Go back -->
<g id="edge8" class="edge">
<title>About to crash?&#45;&gt;Go back</title>
<path fill="none" stroke="black" d="M331.75,-124.7C331.75,-117.41 331.75,-108.73 331.75,-100.54"/>
<polygon fill="black" stroke="black" points="335.25,-100.62 331.75,-90.62 328.25,-100.62 335.25,-100.62"/>
</g>
<!-- /distance -->
<g id="node17" class="node">
<title>/distance</title>
<polygon fill="white" stroke="blue" points="440.25,-17 379.25,-17 379.25,0 440.25,0 440.25,-17"/>
<text text-anchor="middle" x="409.75" y="-6.6" font-family="Times,serif" font-size="8.00" fill="blue">/distance: &#45;</text>
</g>
<!-- /distance&#45;&gt;About to crash? -->
<g id="edge17" class="edge">
<title>/distance&#45;&gt;About to crash?</title>
<path fill="none" stroke="green" d="M406.67,-17.22C400.75,-31.73 387,-63.9 371.75,-89 366.09,-98.3 359.16,-107.96 352.67,-116.44"/>
<polygon fill="green" stroke="green" points="349.97,-114.21 346.55,-124.24 355.48,-118.53 349.97,-114.21"/>
</g>
<!-- /distance&#45;&gt;Go back -->
<g id="edge16" class="edge">
<title>/distance&#45;&gt;Go back</title>
<path fill="none" stroke="green" d="M399.63,-17.35C389.3,-25.36 372.83,-38.13 358.7,-49.1"/>
<polygon fill="green" stroke="green" points="356.79,-46.15 351.03,-55.04 361.08,-51.68 356.79,-46.15"/>
</g>
</g>
</svg>
